<?xml version="1.0" encoding="UTF-8" standalone="no"?>
<!DOCTYPE svg PUBLIC "-//W3C//DTD SVG 1.1//EN"
 "http://www.w3.org/Graphics/SVG/1.1/DTD/svg11.dtd">
<!-- Generated by graphviz version 2.40.1 (20161225.0304)
 -->
<!-- Title: dependencies Pages: 1 -->
<svg width="782pt" height="284pt"
 viewBox="0.00 0.00 782.00 284.00" xmlns="http://www.w3.org/2000/svg" xmlns:xlink="http://www.w3.org/1999/xlink">
<g id="graph0" class="graph" transform="scale(1 1) rotate(0) translate(4 280)">
<title>dependencies</title>
<polygon fill="#ffffff" stroke="transparent" points="-4,4 -4,-280 778,-280 778,4 -4,4"/>
<text text-anchor="start" x="366.0091" y="-42.4" font-family="sans-serif" font-weight="bold" font-size="14.00" fill="#000000">Legend</text>
<polygon fill="#ffffb3" stroke="transparent" points="153,-10 153,-30 173,-30 173,-10 153,-10"/>
<text text-anchor="start" x="176.629" y="-15.4" font-family="sans-serif" font-size="14.00" fill="#000000"> &#160;Declarations</text>
<polygon fill="#8dd3c7" stroke="transparent" points="266,-10 266,-30 286,-30 286,-10 266,-10"/>
<text text-anchor="start" x="289.7251" y="-15.4" font-family="sans-serif" font-size="14.00" fill="#000000"> &#160;Module</text>
<polygon fill="#80b1d3" stroke="transparent" points="352,-10 352,-30 372,-30 372,-10 352,-10"/>
<text text-anchor="start" x="375.7812" y="-15.4" font-family="sans-serif" font-size="14.00" fill="#000000"> &#160;Bootstrap</text>
<polygon fill="#fdb462" stroke="transparent" points="449,-10 449,-30 469,-30 469,-10 449,-10"/>
<text text-anchor="start" x="472.6732" y="-15.4" font-family="sans-serif" font-size="14.00" fill="#000000"> &#160;Providers</text>
<polygon fill="#fb8072" stroke="transparent" points="545,-10 545,-30 565,-30 565,-10 545,-10"/>
<text text-anchor="start" x="568.7258" y="-15.4" font-family="sans-serif" font-size="14.00" fill="#000000"> &#160;Exports</text>
<g id="clust1" class="cluster">
<title>cluster_RepresentativeModule</title>
<polygon fill="none" stroke="#000000" stroke-dasharray="1,5" points="8,-70 8,-268 766,-268 766,-70 8,-70"/>
</g>
<g id="clust2" class="cluster">
<title>cluster_RepresentativeModule_declarations</title>
<polygon fill="none" stroke="#000000" points="578,-78 578,-130 758,-130 758,-78 578,-78"/>
</g>
<g id="clust4" class="cluster">
<title>cluster_RepresentativeModule_imports</title>
<polygon fill="none" stroke="#000000" points="16,-78 16,-130 570,-130 570,-78 16,-78"/>
</g>
<g id="clust5" class="cluster">
<title>cluster_RepresentativeModule_exports</title>
<polygon fill="none" stroke="#000000" points="306,-208 306,-260 490,-260 490,-208 306,-208"/>
</g>
<!-- RepresentativeComponent -->
<g id="node1" class="node">
<title>RepresentativeComponent</title>
<polygon fill="#ffffb3" stroke="#000000" points="750.0197,-122 585.9803,-122 585.9803,-86 750.0197,-86 750.0197,-122"/>
<text text-anchor="middle" x="668" y="-99.8" font-family="Times,serif" font-size="14.00" fill="#000000">RepresentativeComponent</text>
</g>
<!-- RepresentativeModule -->
<g id="node2" class="node">
<title>RepresentativeModule</title>
<polygon fill="#8dd3c7" stroke="#000000" points="469.2366,-187 466.2366,-191 445.2366,-191 442.2366,-187 326.7634,-187 326.7634,-151 469.2366,-151 469.2366,-187"/>
<text text-anchor="middle" x="398" y="-164.8" font-family="Times,serif" font-size="14.00" fill="#000000">RepresentativeModule</text>
</g>
<!-- RepresentativeComponent&#45;&gt;RepresentativeModule -->
<g id="edge1" class="edge">
<title>RepresentativeComponent&#45;&gt;RepresentativeModule</title>
<path fill="none" stroke="#000000" d="M668,-122.2843C668,-143.3211 668,-175 668,-175 668,-175 479.2925,-175 479.2925,-175"/>
<polygon fill="#000000" stroke="#000000" points="479.2925,-171.5001 469.2925,-175 479.2925,-178.5001 479.2925,-171.5001"/>
</g>
<!-- RepresentativeComponent  -->
<g id="node7" class="node">
<title>RepresentativeComponent </title>
<polygon fill="#fb8072" stroke="#000000" points="482.019,-252 313.981,-252 313.981,-216 482.019,-216 482.019,-252"/>
<text text-anchor="middle" x="398" y="-229.8" font-family="Times,serif" font-size="14.00" fill="#000000">RepresentativeComponent </text>
</g>
<!-- RepresentativeModule&#45;&gt;RepresentativeComponent  -->
<g id="edge6" class="edge">
<title>RepresentativeModule&#45;&gt;RepresentativeComponent </title>
<path fill="none" stroke="#000000" stroke-dasharray="5,2" d="M398,-187.1061C398,-187.1061 398,-205.991 398,-205.991"/>
<polygon fill="#000000" stroke="#000000" points="394.5001,-205.9909 398,-215.991 401.5001,-205.991 394.5001,-205.9909"/>
</g>
<!-- HomeModule -->
<g id="node3" class="node">
<title>HomeModule</title>
<polygon fill="#8dd3c7" stroke="#000000" points="561.7619,-122 558.7619,-126 537.7619,-126 534.7619,-122 468.2381,-122 468.2381,-86 561.7619,-86 561.7619,-122"/>
<text text-anchor="middle" x="515" y="-99.8" font-family="Times,serif" font-size="14.00" fill="#000000">HomeModule</text>
</g>
<!-- HomeModule&#45;&gt;RepresentativeModule -->
<g id="edge2" class="edge">
<title>HomeModule&#45;&gt;RepresentativeModule</title>
<path fill="none" stroke="#000000" d="M475.6889,-122.0225C475.6889,-139.3734 475.6889,-163 475.6889,-163 475.6889,-163 475.0531,-163 475.0531,-163"/>
<polygon fill="#000000" stroke="#000000" points="479.3313,-159.5002 469.3312,-163 479.3312,-166.5002 479.3313,-159.5002"/>
</g>
<!-- LayoutsModule -->
<g id="node4" class="node">
<title>LayoutsModule</title>
<polygon fill="#8dd3c7" stroke="#000000" points="450.1528,-122 447.1528,-126 426.1528,-126 423.1528,-122 345.8472,-122 345.8472,-86 450.1528,-86 450.1528,-122"/>
<text text-anchor="middle" x="398" y="-99.8" font-family="Times,serif" font-size="14.00" fill="#000000">LayoutsModule</text>
</g>
<!-- LayoutsModule&#45;&gt;RepresentativeModule -->
<g id="edge3" class="edge">
<title>LayoutsModule&#45;&gt;RepresentativeModule</title>
<path fill="none" stroke="#000000" d="M398,-122.1061C398,-122.1061 398,-140.991 398,-140.991"/>
<polygon fill="#000000" stroke="#000000" points="394.5001,-140.9909 398,-150.991 401.5001,-140.991 394.5001,-140.9909"/>
</g>
<!-- OrdersModule -->
<g id="node5" class="node">
<title>OrdersModule</title>
<polygon fill="#8dd3c7" stroke="#000000" points="327.6375,-122 324.6375,-126 303.6375,-126 300.6375,-122 230.3625,-122 230.3625,-86 327.6375,-86 327.6375,-122"/>
<text text-anchor="middle" x="279" y="-99.8" font-family="Times,serif" font-size="14.00" fill="#000000">OrdersModule</text>
</g>
<!-- OrdersModule&#45;&gt;RepresentativeModule -->
<g id="edge4" class="edge">
<title>OrdersModule&#45;&gt;RepresentativeModule</title>
<path fill="none" stroke="#000000" d="M320.3112,-122.2843C320.3112,-143.3211 320.3112,-175 320.3112,-175 320.3112,-175 320.9469,-175 320.9469,-175"/>
<polygon fill="#000000" stroke="#000000" points="316.6688,-178.5002 326.6688,-175 316.6687,-171.5002 316.6688,-178.5002"/>
</g>
<!-- RepresentativeRoutingModule -->
<g id="node6" class="node">
<title>RepresentativeRoutingModule</title>
<polygon fill="#8dd3c7" stroke="#000000" points="211.8543,-122 208.8543,-126 187.8543,-126 184.8543,-122 24.1457,-122 24.1457,-86 211.8543,-86 211.8543,-122"/>
<text text-anchor="middle" x="118" y="-99.8" font-family="Times,serif" font-size="14.00" fill="#000000">RepresentativeRoutingModule</text>
</g>
<!-- RepresentativeRoutingModule&#45;&gt;RepresentativeModule -->
<g id="edge5" class="edge">
<title>RepresentativeRoutingModule&#45;&gt;RepresentativeModule</title>
<path fill="none" stroke="#000000" d="M118,-122.0225C118,-139.3734 118,-163 118,-163 118,-163 316.6197,-163 316.6197,-163"/>
<polygon fill="#000000" stroke="#000000" points="316.6197,-166.5001 326.6197,-163 316.6197,-159.5001 316.6197,-166.5001"/>
</g>
</g>
</svg>
