<?xml version="1.0" standalone="no"?>
<!DOCTYPE svg PUBLIC "-//W3C//DTD SVG 1.1//EN" "http://www.w3.org/Graphics/SVG/1.1/DTD/svg11.dtd" >
<svg>
<metadata>
Created by FontForge 20120731 at Sat Jun 29 13:14:16 2019
 By www
Copyright (c) 2014 by S-Core Co., Ltd.. All rights reserved.
</metadata>
<defs>
<font id="CoreRhino45RegularW01-Rg" horiz-adv-x="659" >
  <font-face 
    font-family="CoreRhino45RegularW01-Rg"
    font-weight="400"
    font-stretch="normal"
    units-per-em="1000"
    panose-1="2 1 5 3 3 3 2 2 2 4"
    ascent="800"
    descent="-200"
    x-height="534"
    cap-height="706"
    bbox="-59 -248 1205 928"
    underline-thickness="50"
    underline-position="-125"
    unicode-range="U+0008-2122"
  />
<missing-glyph horiz-adv-x="500" 
d="M70 0v750h360v-750h-360zM355 65v620h-210v-620h210z" />
    <glyph glyph-name=".notdef" horiz-adv-x="500" 
d="M70 0v750h360v-750h-360zM355 65v620h-210v-620h210z" />
    <glyph glyph-name=".null" horiz-adv-x="0" 
 />
    <glyph glyph-name="nonmarkingreturn" horiz-adv-x="333" 
 />
    <glyph glyph-name="uni0008" horiz-adv-x="0" 
 />
    <glyph glyph-name="uni0008" horiz-adv-x="0" 
 />
    <glyph glyph-name="uni0008" horiz-adv-x="0" 
 />
    <glyph glyph-name="uni0009" unicode="&#x9;" horiz-adv-x="300" 
 />
    <glyph glyph-name="uni0009" unicode="&#xd;" horiz-adv-x="300" 
 />
    <glyph glyph-name="space" unicode=" " horiz-adv-x="300" 
 />
    <glyph glyph-name="exclam" unicode="!" horiz-adv-x="294" 
d="M110 201q-3 39 -5 84t-4 92.5t-3 96t-1 93.5v131q32 8 69 8q31 0 31 -22v-117q0 -92 -3.5 -192.5t-10.5 -195.5h-46q-15 0 -20 5.5t-7 16.5zM149 -12q-23 0 -40.5 16t-17.5 45q0 26 15.5 41t38.5 15t41 -16t18 -45q0 -26 -16 -41t-39 -15z" />
    <glyph glyph-name="quotedbl" unicode="&#x22;" horiz-adv-x="465" 
d="M144 417q-15 0 -20.5 5t-6.5 16l-11 258q15 5 33 7.5t37 2.5q32 0 30 -23l-13 -266h-49zM296 417q-15 0 -20.5 5t-6.5 16l-11 258q15 5 33 7.5t37 2.5q32 0 30 -23l-13 -266h-49z" />
    <glyph glyph-name="numbersign" unicode="#" horiz-adv-x="697" 
d="M253 256h158l32 187h-158zM546 521h81q22 0 22 -28v-50h-116l-32 -187h89q22 0 22 -28v-50h-125l-30 -178h-58q-18 0 -23.5 6.5t-3.5 19.5l25 152h-157l-30 -178h-59q-18 0 -23.5 6.5t-3.5 19.5l26 152h-82q-21 0 -21 26q0 11 2 25.5t5 26.5h109l32 187h-90q-21 0 -21 26
q0 11 2 25.5t5 26.5h117l31 176q28 9 62 9q14 0 21 -5.5t5 -17.5l-29 -162h158l30 176q28 9 62 9q14 0 21 -5.5t5 -17.5z" />
    <glyph glyph-name="dollar" unicode="$" horiz-adv-x="594" 
d="M292 -112q-28 0 -28 23v78q-38 3 -70 11t-55 19t-35.5 23t-12.5 23t3.5 22t8.5 19q38 -19 85 -29.5t95 -10.5q81 0 120.5 30t39.5 76q0 48 -36 78.5t-117 52.5q-109 29 -168 81t-59 136q0 38 13.5 70t37.5 56.5t58.5 40.5t76.5 22v95q12 4 25 6t28 2q27 0 27 -21v-81
q66 -8 116 -39t76 -78q3 -5 5 -10.5t2 -13.5q0 -12 -19 -23q-14 -8 -30 -12t-31 -5q-20 50 -60 77t-97 27q-60 0 -97.5 -30t-37.5 -81q0 -23 9 -42.5t29 -36t52.5 -31.5t79.5 -30q111 -36 160 -85t49 -121q0 -75 -51 -124.5t-140 -60.5v-103h-52z" />
    <glyph glyph-name="percent" unicode="%" horiz-adv-x="875" 
d="M384 532q0 -41 -13 -73.5t-35.5 -55.5t-53 -35t-64.5 -12q-35 0 -65 12t-52 35t-35 55.5t-13 73.5q0 40 13 73t35 55.5t52 35t65 12.5q34 0 64.5 -12.5t53 -35t35.5 -55.5t13 -73zM131 536q0 -54 25 -83.5t67 -29.5q37 0 59.5 28.5t22.5 77.5q0 53 -24.5 82.5t-66.5 29.5
q-38 0 -60.5 -28t-22.5 -77zM586 700q26 0 26 -15q0 -5 -3 -11l-282 -674h-38q-26 0 -26 15q0 5 3 11l282 674h38zM822 168q0 -41 -13 -73.5t-35.5 -55.5t-53 -35t-64.5 -12q-35 0 -65 12t-52 35t-35 55.5t-13 73.5q0 40 13 73t35 55.5t52 35t65 12.5q34 0 64.5 -12.5
t53 -35t35.5 -55.5t13 -73zM569 172q0 -54 25 -83.5t67 -29.5q37 0 59.5 28.5t22.5 77.5q0 53 -24.5 82.5t-66.5 29.5q-38 0 -60.5 -28t-22.5 -77z" />
    <glyph glyph-name="ampersand" unicode="&#x26;" horiz-adv-x="730" 
d="M619 406q11 -1 22.5 -4t19.5 -10q11 -8 11 -33q0 -23 -8.5 -51.5t-23.5 -59.5t-36 -63t-47 -60q21 -16 40 -28.5t36 -21.5q14 -8 25.5 -10.5t24.5 -2.5h20q5 -17 5 -32t-16.5 -28.5t-45.5 -13.5q-17 0 -31 3.5t-31 12.5q-22 12 -45.5 28t-46.5 34q-50 -37 -105 -57.5
t-118 -20.5q-46 0 -85.5 13t-68.5 36.5t-45.5 56.5t-16.5 74q0 60 35 111.5t101 86.5q-40 52 -55 92.5t-15 82.5q0 36 14.5 67t39.5 54.5t59 36.5t73 13t71.5 -12t56 -33t36.5 -50t13 -63q0 -33 -13 -62.5t-36.5 -54.5t-56 -46t-70.5 -37q18 -20 41.5 -44.5t48.5 -49
t50.5 -47t48.5 -39.5q38 43 71 101.5t53 130.5zM429 118q-53 45 -105.5 97.5t-94.5 100.5q-45 -28 -67 -65t-22 -79q0 -49 37 -77.5t97 -28.5q81 0 155 52zM208 542q0 -33 12.5 -65t44.5 -74q57 26 91 63.5t34 82.5q0 42 -25 66t-63 24q-40 0 -67 -27.5t-27 -69.5z" />
    <glyph glyph-name="quotesingle" unicode="'" horiz-adv-x="292" 
d="M133 417q-15 0 -20.5 5t-6.5 16l-11 258q15 5 33 7.5t37 2.5q32 0 30 -23l-13 -266h-49z" />
    <glyph glyph-name="parenleft" unicode="(" horiz-adv-x="382" 
d="M107 310q0 126 36 232t99 177q23 25 38 32t24 2q17 -10 25 -33q-67 -82 -100.5 -185t-33.5 -225t33.5 -225t100.5 -185q-8 -23 -25 -33q-9 -5 -24 2t-38 32q-63 71 -99 177t-36 232z" />
    <glyph glyph-name="parenright" unicode=")" horiz-adv-x="382" 
d="M276 310q0 -126 -36.5 -232t-99.5 -177q-23 -25 -38 -32t-24 -2q-17 10 -25 33q135 165 135 410t-135 410q8 23 25 33q9 5 24 -2t38 -32q63 -71 99.5 -177t36.5 -232z" />
    <glyph glyph-name="asterisk" unicode="*" horiz-adv-x="605" 
d="M254 555q15 4 31.5 7t33.5 3q28 0 28 -21l-12 -175l173 68q9 -12 17 -26.5t13 -31.5q8 -28 -11 -32l-170 -44l118 -143q-8 -12 -19.5 -24t-25.5 -22q-24 -15 -36 1l-94 149l-100 -156q-14 5 -29 12t-29 17q-12 9 -14 16.5t4 16.5l111 134l-179 46q0 16 2.5 32.5t7.5 31.5
t11.5 19.5t17.5 1.5l163 -65z" />
    <glyph glyph-name="plus" unicode="+" horiz-adv-x="649" 
d="M308 90q-28 0 -28 22v183h-175q-20 0 -20 25q0 11 1.5 24.5t4.5 23.5h189v196q28 10 60 10q27 0 27 -21v-185h173q12 0 17.5 -6t5.5 -22v-45h-196v-205h-59z" />
    <glyph glyph-name="comma" unicode="," horiz-adv-x="329" 
d="M163 105q23 0 40.5 -16.5t17.5 -48.5q0 -39 -13.5 -72t-37.5 -62q-18 -23 -35.5 -32.5t-22.5 -7.5q-5 3 -10 9.5t-7 14.5q22 21 37 47t19 53q-18 5 -30.5 20.5t-12.5 38.5q0 26 15.5 41t39.5 15z" />
    <glyph glyph-name="hyphen" unicode="-" horiz-adv-x="467" 
d="M354 371q23 0 23 -28v-50h-266q-20 0 -20 27q0 11 1.5 25t4.5 26h257z" />
    <glyph glyph-name="period" unicode="." horiz-adv-x="329" 
d="M221 44q0 -26 -15.5 -41t-39.5 -15q-23 0 -40.5 16t-17.5 45q0 26 15.5 41t39.5 15q23 0 40.5 -16t17.5 -45z" />
    <glyph glyph-name="slash" unicode="/" horiz-adv-x="494" 
d="M473 753q25 0 25 -17q0 -4 -3 -10l-415 -836h-60q-25 0 -25 17q0 4 3 10l415 836h60z" />
    <glyph glyph-name="zero" unicode="0" 
d="M596 350q0 -86 -18 -153t-52.5 -113.5t-84 -71t-111.5 -24.5t-111.5 24.5t-84 71t-53 113.5t-18.5 153q0 85 18 152.5t52.5 114t84 71t111.5 24.5q63 0 112.5 -24.5t84 -71t52.5 -113.5t18 -153zM155 358q0 -66 11.5 -119.5t34 -92t56.5 -59t79 -20.5q80 0 124 70.5
t44 204.5q0 66 -11.5 119.5t-34 92t-56 59t-78.5 20.5q-81 0 -125 -70.5t-44 -204.5z" />
    <glyph glyph-name="one" unicode="1" 
d="M401 700q28 0 28 -23v-677h-63q-16 0 -22 5t-6 17v575l-167 -107q-12 6 -22.5 15.5t-18.5 19.5q-7 10 -7 19q0 14 18 25l205 131h55z" />
    <glyph glyph-name="two" unicode="2" 
d="M562 477q0 -61 -22 -116t-61 -104.5t-93 -94t-117 -84.5h275q23 0 23 -29v-49h-420q-13 0 -20 3.5t-13 12.5q-5 8 -10 20.5t-7 26.5q73 41 140.5 88t119.5 99.5t82.5 110t30.5 120.5q0 72 -41 112t-110 40q-57 0 -97.5 -34.5t-59.5 -96.5q-16 2 -33 6t-29 12
q-16 9 -16 24q0 6 2 12t4 11q28 63 86 104t145 41q53 0 97.5 -16.5t76.5 -47.5t49.5 -74t17.5 -97z" />
    <glyph glyph-name="three" unicode="3" 
d="M276 343q-12 1 -19.5 4t-13.5 12q-5 8 -9.5 22t-6.5 27l195 214h-303q-21 0 -21 26q0 12 2 26t5 26h382q22 0 33 -16q5 -8 9.5 -21t6.5 -26l-207 -230q51 -8 93.5 -24.5t73.5 -42.5t48 -62t17 -82q0 -48 -19.5 -86.5t-54.5 -65.5t-83.5 -41.5t-107.5 -14.5q-45 0 -84 8.5
t-67.5 20.5t-44.5 25.5t-16 24.5t3.5 22.5t8.5 19.5q42 -20 89 -31t100 -11q85 0 134.5 33.5t49.5 95.5q0 130 -193 147z" />
    <glyph glyph-name="four" unicode="4" 
d="M430 611q-43 -30 -85.5 -74.5t-79 -96.5t-65 -108.5t-43.5 -110.5h273v390zM107 143q-13 0 -20 3.5t-13 12.5q-5 8 -10 20.5t-7 26.5q19 69 53 138t78 132t96.5 118t110.5 95q19 8 40 13t50 5q21 0 28.5 -6.5t7.5 -23.5v-456h71q22 0 22 -28v-50h-93v-143h-63
q-28 0 -28 22v121h-323z" />
    <glyph glyph-name="five" unicode="5" 
d="M473 216q0 74 -50.5 112t-134.5 38q-29 0 -62.5 -3.5t-56.5 -8.5q-14 -3 -21 -3q-10 0 -19 8l-11 10l44 331h355q22 0 22 -28v-50h-303l-26 -192q17 6 43.5 10t55.5 4q57 0 104 -16t80.5 -45.5t52 -72t18.5 -94.5q0 -49 -17.5 -90.5t-51 -72t-82.5 -48t-112 -17.5
q-47 0 -87 8.5t-68.5 20.5t-44.5 25.5t-16 24.5t3.5 22.5t8.5 19.5q84 -42 190 -42q85 0 135.5 38t50.5 111z" />
    <glyph glyph-name="six" unicode="6" 
d="M367 633q-40 0 -76 -15.5t-63.5 -47.5t-44.5 -80t-20 -114q35 29 84 48t106 19q51 0 95.5 -16t77.5 -46t52.5 -73t19.5 -96q0 -47 -17 -88t-48.5 -71t-76 -47.5t-99.5 -17.5q-64 0 -116.5 23t-90 67t-58 106.5t-20.5 142.5v16q0 86 21.5 154.5t60.5 116t92.5 73
t117.5 25.5q73 0 127 -30.5t81 -86.5q7 -14 7 -28t-18 -25q-11 -8 -28 -12t-33 -6q-12 55 -47.5 82t-85.5 27zM338 364q-50 0 -95 -16.5t-80 -47.5q5 -112 59.5 -172.5t138.5 -60.5q30 0 57 10t46.5 28.5t31 44.5t11.5 59q0 37 -13 66t-36 48.5t-54 30t-66 10.5z" />
    <glyph glyph-name="seven" unicode="7" 
d="M571 637q-96 -158 -161.5 -314.5t-104.5 -322.5h-63q-32 0 -25 28q42 159 105 308.5t145 285.5h-366q-21 0 -21 26q0 12 2 26t5 26h434q13 0 20 -3.5t13 -12.5q5 -8 10 -20.5t7 -26.5z" />
    <glyph glyph-name="eight" unicode="8" 
d="M65 186q0 60 37.5 106t114.5 72q-67 30 -96 70.5t-29 93.5q0 38 16 71.5t46 58.5t73.5 39.5t97.5 14.5q55 0 98 -14.5t73 -40t45.5 -59t15.5 -70.5q0 -51 -29.5 -93t-79.5 -73q144 -62 144 -175q0 -44 -18.5 -80.5t-52.5 -63t-82.5 -41t-109.5 -14.5q-60 0 -108.5 14.5
t-83 40.5t-53.5 62.5t-19 80.5zM157 184q0 -27 13.5 -48.5t37 -37t54.5 -24t67 -8.5q37 0 68 9t54 24.5t36 37t13 47.5q0 25 -10 46t-33.5 39t-62 33.5t-94.5 29.5q-78 -26 -110.5 -64t-32.5 -84zM465 529q0 23 -11 42.5t-29.5 33t-44 21t-55.5 7.5t-55.5 -7.5t-44.5 -21
t-30 -32.5t-11 -42t9.5 -41.5t31 -34.5t57 -31t88.5 -31q95 57 95 137z" />
    <glyph glyph-name="nine" unicode="9" 
d="M277 67q42 0 81 13.5t70 44t51 79t24 119.5q-35 -29 -84 -47.5t-105 -18.5q-51 0 -95.5 16t-77.5 46t-52.5 73t-19.5 96q0 47 17 88t48.5 71t76 47.5t99.5 17.5q64 0 116.5 -23t90 -67t58 -107t20.5 -142v-16q0 -94 -23 -163.5t-63.5 -115t-96 -68t-119.5 -22.5
q-35 0 -67.5 8t-58 19.5t-41 25t-15.5 25.5q0 11 3.5 22.5t8.5 19.5q33 -20 73 -30.5t81 -10.5zM329 336q50 0 95 16.5t80 46.5q-3 56 -18.5 99.5t-41.5 73.5t-61 45.5t-77 15.5q-30 0 -57 -10t-46.5 -28.5t-31 -44.5t-11.5 -59q0 -37 13 -66t36 -48.5t54 -30t66 -10.5z" />
    <glyph glyph-name="colon" unicode=":" horiz-adv-x="329" 
d="M221 44q0 -26 -15.5 -41t-39.5 -15q-23 0 -40.5 16t-17.5 45q0 26 15.5 41t39.5 15q23 0 40.5 -16t17.5 -45zM221 485q0 -26 -15.5 -41t-39.5 -15q-23 0 -40.5 16t-17.5 45q0 26 15.5 41t39.5 15q23 0 40.5 -16t17.5 -45z" />
    <glyph glyph-name="semicolon" unicode=";" horiz-adv-x="329" 
d="M221 485q0 -26 -15.5 -41t-39.5 -15q-23 0 -40.5 16t-17.5 45q0 26 15.5 41t39.5 15q23 0 40.5 -16t17.5 -45zM163 105q23 0 40.5 -16.5t17.5 -48.5q0 -39 -13.5 -72t-37.5 -62q-18 -23 -35.5 -32.5t-22.5 -7.5q-5 3 -10 9.5t-7 14.5q22 21 37 47t19 53q-18 5 -30.5 20.5
t-12.5 38.5q0 26 15.5 41t39.5 15z" />
    <glyph glyph-name="less" unicode="&#x3c;" horiz-adv-x="649" 
d="M105 281q-10 4 -15 11t-5 21v61l444 191q7 3 14 3q20 0 20 -31q0 -13 -1.5 -24.5t-3.5 -23.5l-375 -157l359 -151q10 -5 15.5 -12t5.5 -20v-65z" />
    <glyph glyph-name="equal" unicode="=" horiz-adv-x="649" 
d="M105 405q-20 0 -20 26q0 10 1.5 23.5t4.5 24.5h449q23 0 23 -28v-46h-458zM105 184q-20 0 -20 26q0 10 1.5 23.5t4.5 24.5h449q23 0 23 -28v-46h-458z" />
    <glyph glyph-name="greater" unicode="&#x3e;" horiz-adv-x="649" 
d="M85 84v65q0 14 5 20.5t16 11.5l359 151l-376 157q-2 12 -3 23.5t-1 24.5q0 31 19 31q6 0 14 -3l445 -191v-61q0 -25 -21 -32z" />
    <glyph glyph-name="question" unicode="?" horiz-adv-x="557" 
d="M266 -12q-23 0 -40.5 16t-17.5 45q0 26 15.5 41t38.5 15t40.5 -16t17.5 -45q0 -26 -15.5 -41t-38.5 -15zM278 712q48 0 87.5 -14t68 -39.5t44 -61.5t15.5 -79q0 -60 -28 -105t-87 -95q-20 -17 -33.5 -30.5t-21.5 -26t-11 -25.5t-3 -29v-28h-62q-16 0 -22 5t-6 17v15
q0 22 5 41.5t16 38.5t29 38t45 41q47 38 66.5 70t19.5 73q0 52 -34 83.5t-88 31.5q-50 0 -91 -33.5t-55 -97.5q-17 2 -34 6t-28 12q-17 10 -17 24q0 11 5 23q26 65 81.5 105t138.5 40z" />
    <glyph glyph-name="at" unicode="@" horiz-adv-x="1021" 
d="M462 124q41 0 78 18t64 51l38 196q-16 20 -43.5 30t-59.5 10q-34 0 -66 -14t-56.5 -39t-39 -60t-14.5 -77q0 -54 27 -84.5t72 -30.5zM521 -99q65 0 124 17t111 56q17 -10 20 -29q1 -9 -15.5 -26.5t-49.5 -35.5t-81.5 -31.5t-112.5 -13.5q-95 0 -176 33.5t-140 92
t-92.5 138.5t-33.5 173q0 94 34 174t93 138.5t138.5 91.5t169.5 33q95 0 175 -31t138 -86.5t90.5 -131t32.5 -163.5q0 -54 -14.5 -100t-41 -80t-63 -53.5t-81.5 -19.5t-80 24t-50 67q-32 -42 -75 -64t-96 -22q-35 0 -65.5 13.5t-53 38t-35.5 58.5t-13 75q0 63 23 112t60 82
t84.5 50.5t96.5 17.5q63 0 110 -26.5t75 -66.5l-39 -206q-8 -41 8.5 -65.5t54.5 -24.5q25 0 47.5 13.5t40 38t27.5 59.5t10 77q0 75 -26.5 139t-74.5 111t-115.5 74t-149.5 27q-75 0 -141 -28t-116 -77.5t-79 -118t-29 -149.5q0 -80 28 -148.5t78 -119t119 -79t151 -28.5z
" />
    <glyph glyph-name="A" unicode="A" horiz-adv-x="671" 
d="M53 0q-12 0 -19.5 5t-7.5 14q0 4 2 10l248 660q17 8 38.5 12.5t41.5 4.5q19 0 27.5 -6.5t15.5 -23.5l254 -676h-69q-17 0 -24.5 4.5t-11.5 15.5l-58 162h-310l-65 -182h-62zM335 614l-128 -355h256z" />
    <glyph glyph-name="B" unicode="B" horiz-adv-x="655" 
d="M355 77q78 0 114 32t36 90q0 118 -164 118h-157v-135q0 -60 15.5 -82.5t56.5 -22.5h99zM184 622v-228h150q75 0 111.5 30t36.5 84q0 53 -38 83.5t-110 30.5h-150zM341 700q57 0 100.5 -14.5t73.5 -40t45 -59t15 -72.5q0 -56 -27.5 -95t-75.5 -58q57 -17 91.5 -60
t34.5 -106q0 -88 -62 -141.5t-183 -53.5h-108q-74 0 -113 39t-39 135v526h248z" />
    <glyph glyph-name="C" unicode="C" horiz-adv-x="687" 
d="M638 565q5 -10 5 -17q0 -23 -27 -34q-21 -10 -51 -13q-25 63 -75 97.5t-120 34.5q-42 0 -82 -17t-70.5 -49.5t-49 -81t-18.5 -111.5q0 -73 23 -130.5t62.5 -97t93.5 -60t117 -20.5q42 0 84.5 9t77.5 29q5 -8 8.5 -19.5t3.5 -22.5t-14.5 -24t-40 -24t-60 -18.5t-73.5 -7.5
q-80 0 -148 26.5t-118.5 76.5t-79 120.5t-28.5 159.5q0 82 26 145.5t69.5 107t101 66t120.5 22.5q95 0 163 -41t100 -106z" />
    <glyph glyph-name="D" unicode="D" horiz-adv-x="722" 
d="M320 78q51 0 96.5 17t79.5 51.5t54 85t20 118.5q0 67 -20 118t-54 85.5t-79.5 51.5t-96.5 17h-135v-440q0 -59 15 -81.5t56 -22.5h64zM245 0q-75 0 -113 39t-38 136v525h237q71 0 132 -24t105.5 -69.5t70 -110.5t25.5 -146t-25.5 -146t-70 -110.5t-105.5 -69.5t-132 -24
h-86z" />
    <glyph glyph-name="E" unicode="E" horiz-adv-x="574" 
d="M245 0q-75 0 -113.5 39t-38.5 135v526h396q20 0 20 -26q0 -12 -1.5 -26t-4.5 -26h-319v-236h249q22 0 22 -28v-50h-271v-126q0 -60 17 -82.5t55 -22.5h239q22 0 22 -28v-49h-272z" />
    <glyph glyph-name="F" unicode="F" horiz-adv-x="549" 
d="M123 0q-28 0 -28 22v678h396q20 0 20 -26q0 -12 -1.5 -26t-4.5 -26h-319v-240h249q12 0 17 -6t5 -22v-49h-271v-305h-63z" />
    <glyph glyph-name="G" unicode="G" horiz-adv-x="749" 
d="M579 508q-24 61 -75 93t-120 32q-47 0 -89.5 -17.5t-74.5 -50.5t-51 -81.5t-19 -109.5q0 -72 22.5 -129t61.5 -97t90 -61t108 -21q75 0 110.5 25t35.5 66v118h-142q-21 0 -21 25q0 12 2 26.5t5 25.5h224q12 0 17.5 -6t5.5 -22v-166q0 -38 -16.5 -69t-47 -53.5t-75 -35
t-100.5 -12.5q-79 0 -147 27t-118 77.5t-78.5 121t-28.5 157.5q0 80 26 143.5t70 107.5t103.5 67t125.5 23q94 0 163.5 -38.5t105.5 -101.5q5 -10 5 -17q0 -23 -27 -34q-21 -10 -51 -13z" />
    <glyph glyph-name="H" unicode="H" horiz-adv-x="722" 
d="M123 0q-28 0 -28 22v674q14 5 30.5 7.5t33.5 2.5q27 0 27 -21v-296h349v311h63q28 0 28 -23v-677h-63q-16 0 -22 5t-6 17v290h-349v-312h-63z" />
    <glyph glyph-name="I" unicode="I" horiz-adv-x="293" 
d="M129 0q-16 0 -22 5t-6 17v674q14 5 30 7.5t33 2.5q28 0 28 -21v-685h-63z" />
    <glyph glyph-name="J" unicode="J" horiz-adv-x="422" 
d="M145 -12q-25 0 -48 5t-41 13.5t-29 18t-11 18.5q0 11 3.5 22.5t8.5 19.5q21 -8 46.5 -13t50.5 -5q114 0 114 122v508q28 9 63 9q28 0 28 -21v-498q0 -95 -47 -147t-138 -52z" />
    <glyph glyph-name="K" unicode="K" horiz-adv-x="660" 
d="M588 630q-40 -63 -98.5 -127.5t-125.5 -121.5q25 -45 51.5 -88.5t53 -81.5t51.5 -69t47 -51q14 -13 28 -19t25 -6h19q5 -17 5 -36q0 -15 -17.5 -28.5t-46.5 -13.5q-46 0 -90 46q-47 48 -96.5 126t-97.5 169q-26 -21 -54 -40t-56 -36v-253h-63q-28 0 -28 22v674
q14 5 30.5 7.5t33.5 2.5q27 0 27 -21v-331q89 60 180 150.5t164 201.5q37 -12 51.5 -23t14.5 -27q0 -14 -8 -26z" />
    <glyph glyph-name="L" unicode="L" horiz-adv-x="546" 
d="M245 0q-75 0 -113.5 39t-38.5 135v522q14 5 30.5 7.5t33.5 2.5q27 0 27 -21v-503q0 -60 17 -82.5t55 -22.5h241q22 0 22 -28v-49h-274z" />
    <glyph glyph-name="M" unicode="M" horiz-adv-x="896" 
d="M675 562l-180 -324q-5 -8 -12.5 -12t-22.5 -4h-52l-188 340l-58 -562h-64q-31 0 -28 24l72 658q17 11 36.5 17.5t33.5 6.5q11 0 17 -3.5t12 -14.5l206 -373l213 385h64q16 0 21.5 -5.5t7.5 -17.5l74 -677h-67q-16 0 -22.5 5t-8.5 18z" />
    <glyph glyph-name="N" unicode="N" horiz-adv-x="718" 
d="M187 548v-548h-63q-28 0 -28 22v656q16 12 35 20t32 8q10 0 16 -3.5t11 -11.5l341 -539v548h63q28 0 28 -22v-656q-16 -12 -35 -20t-32 -8q-17 0 -27 15z" />
    <glyph glyph-name="O" unicode="O" horiz-adv-x="773" 
d="M59 350q0 90 26 157.5t71 113t104.5 68.5t125.5 23q67 0 126.5 -23t104.5 -68.5t71 -113t26 -157.5t-26 -157.5t-71 -113t-104.5 -68.5t-126.5 -23q-66 0 -125.5 23t-104.5 68.5t-71 113t-26 157.5zM152 359q0 -71 19 -125.5t52 -91.5t76.5 -56t93.5 -19q43 0 84.5 16
t73 50t51 85.5t19.5 122.5t-19 125.5t-52 91.5t-77 56t-93 19q-44 0 -85 -16t-73 -50t-51 -85.5t-19 -122.5z" />
    <glyph glyph-name="P" unicode="P" horiz-adv-x="638" 
d="M124 0q-28 0 -28 22v678h220q62 0 112.5 -17.5t86.5 -50t55.5 -80t19.5 -107.5t-20.5 -106.5t-56.5 -78t-84.5 -48t-104.5 -16.5q-31 0 -69.5 5t-67.5 14v-215h-63zM187 288q26 -7 57.5 -10t65.5 -3q42 0 76 11t59 32.5t38.5 54t13.5 75.5q0 87 -51 130.5t-135 43.5h-124
v-334z" />
    <glyph glyph-name="Q" unicode="Q" horiz-adv-x="773" 
d="M59 350q0 90 26 157.5t71 113t104.5 68.5t125.5 23q67 0 126.5 -23t104.5 -68.5t71 -113t26 -157.5q0 -119 -44.5 -198.5t-116.5 -121.5q32 -55 63.5 -76t63.5 -21h19q5 -17 5 -32q0 -14 -17 -26.5t-49 -12.5q-45 0 -84 36t-68 105q-48 -15 -100 -15q-66 0 -125.5 23
t-104.5 68.5t-71 113t-26 157.5zM152 359q0 -71 19 -125.5t52 -91.5t77 -56t93 -19q43 0 84.5 16t73 50t51 85.5t19.5 122.5t-19 125.5t-52 91.5t-77 56t-93 19q-44 0 -85 -16t-73 -50t-51 -85.5t-19 -122.5z" />
    <glyph glyph-name="R" unicode="R" horiz-adv-x="653" 
d="M541 -12q-39 0 -76 31q-40 33 -78 86.5t-69 110.5q-33 0 -67 3.5t-65 13.5v-233h-63q-28 0 -28 22v678h205q63 0 113.5 -16.5t86 -47.5t55 -76t19.5 -102q0 -91 -46 -148t-120 -80q32 -52 63.5 -89t58.5 -58t52 -21h18q5 -17 5 -32t-17 -28.5t-47 -13.5zM186 306
q49 -12 108 -12q84 0 135 41.5t51 122.5t-50.5 122.5t-135.5 41.5h-108v-316z" />
    <glyph glyph-name="S" unicode="S" horiz-adv-x="594" 
d="M291 712q80 0 140 -32.5t90 -86.5q3 -5 5 -10.5t2 -13.5q0 -12 -19 -23q-14 -8 -30 -12t-31 -5q-20 50 -60 77t-97 27q-60 0 -97.5 -30t-37.5 -81q0 -23 9 -42.5t29 -36t52.5 -31.5t79.5 -30q111 -36 160 -85t49 -121q0 -42 -17 -76.5t-48 -59.5t-76 -38.5t-100 -13.5
q-44 0 -81 7.5t-64 19t-42.5 25t-15.5 25.5q0 11 3.5 22t8.5 19q38 -19 85 -29.5t95 -10.5q81 0 120.5 30t39.5 76q0 48 -36 78.5t-117 52.5q-109 29 -168 81t-59 136q0 42 17 77.5t47 61t72 39.5t92 14z" />
    <glyph glyph-name="T" unicode="T" horiz-adv-x="611" 
d="M287 0q-28 0 -28 22v600h-196q-21 0 -21 26q0 11 2 25.5t5 26.5h496q23 0 23 -29v-49h-218v-622h-63z" />
    <glyph glyph-name="U" unicode="U" horiz-adv-x="719" 
d="M90 696q14 5 30.5 7.5t33.5 2.5q27 0 27 -21v-398q0 -50 12.5 -90.5t35.5 -69.5t56 -45t74 -16t74 16t56 45t35.5 69.5t12.5 90.5v413h63q28 0 28 -23v-383q0 -70 -18.5 -126.5t-53 -96.5t-84.5 -61.5t-113 -21.5t-113 21.5t-84.5 61.5t-53 96.5t-18.5 126.5v402z" />
    <glyph glyph-name="V" unicode="V" horiz-adv-x="715" 
d="M667 675q-39 -170 -102 -335t-149 -317q-7 -12 -15 -17.5t-25 -5.5h-79l-254 679q17 11 36 18.5t34 7.5q20 0 26 -18l215 -579q33 57 65 126t60.5 145.5t53 157.5t42.5 163h65q33 0 27 -25z" />
    <glyph glyph-name="W" unicode="W" horiz-adv-x="1113" 
d="M1058 675q-32 -165 -84.5 -326t-128.5 -326q-6 -13 -15 -18t-26 -5h-79l-167 586q-29 -133 -76 -279.5t-110 -283.5q-10 -23 -41 -23h-75l-208 679q17 11 36 18.5t34 7.5q11 0 17 -3.5t10 -14.5l170 -580q55 121 100.5 270t79.5 323h83q18 0 27 -5.5t13 -18.5l164 -569
q59 126 105.5 276t77.5 317h66q31 0 27 -25z" />
    <glyph glyph-name="X" unicode="X" horiz-adv-x="685" 
d="M641 43q-20 -27 -36.5 -38.5t-29.5 -11.5q-8 0 -13 3t-11 11l-214 284q-60 -60 -108.5 -132.5t-83.5 -158.5h-69q-25 0 -25 17q0 8 4 17q38 88 96.5 172t133.5 154l-222 295q20 27 36.5 38.5t29.5 11.5q8 0 13 -3t11 -11l201 -267q54 57 101 126t79 150h69q24 0 24 -18
q0 -8 -4 -17q-35 -83 -91.5 -163t-126.5 -148z" />
    <glyph glyph-name="Y" unicode="Y" horiz-adv-x="661" 
d="M282 235l-244 430q20 20 37.5 30t30.5 10q15 0 24 -16l200 -366q60 82 114 178.5t89 198.5h65q16 0 22.5 -8t1.5 -19q-43 -115 -107 -225.5t-142 -208.5v-239h-63q-16 0 -22 5t-6 17v213z" />
    <glyph glyph-name="Z" unicode="Z" horiz-adv-x="610" 
d="M499 700q13 0 20 -3.5t13 -12.5q5 -8 10 -20.5t7 -26.5l-376 -560h361q23 0 23 -28v-49h-449q-13 0 -20 3.5t-13 12.5q-5 8 -10 20.5t-7 26.5l376 559h-338q-21 0 -21 26q0 11 2 25.5t5 26.5h417z" />
    <glyph glyph-name="bracketleft" unicode="[" horiz-adv-x="419" 
d="M214 56q0 -64 17 -88t57 -24h77q23 0 23 -28v-46h-107q-78 0 -116 42t-38 141v697h244q21 0 21 -26q0 -11 -2 -24t-4 -24h-172v-620z" />
    <glyph glyph-name="backslash" unicode="\" horiz-adv-x="494" 
d="M80 753l415 -836q3 -6 3 -10q0 -17 -25 -17h-60l-415 836q-3 6 -3 10q0 17 25 17h60z" />
    <glyph glyph-name="bracketright" unicode="]" horiz-adv-x="419" 
d="M204 676h-172q-2 11 -4 24t-2 24q0 26 21 26h216q28 0 28 -23v-674q0 -99 -37.5 -141t-116.5 -42h-107v46q0 28 23 28h77q21 0 35 5.5t22.5 18.5t12.5 34.5t4 53.5v620z" />
    <glyph glyph-name="asciicircum" unicode="^" horiz-adv-x="622" 
d="M307 620l-157 -257q-14 0 -29 4.5t-26 10.5q-15 8 -15 20q0 6 2 11t6 11l172 280h65q30 0 45 -25l172 -280l-45 -27q-11 -7 -20 -7q-13 0 -24 20z" />
    <glyph glyph-name="underscore" unicode="_" horiz-adv-x="500" 
d="M478 -107q11 0 16.5 -6t5.5 -22v-30h-479q-21 0 -21 25q0 8 1 17t3 16h474z" />
    <glyph glyph-name="grave" unicode="`" horiz-adv-x="417" 
d="M113 678q6 12 14.5 22.5t16.5 18.5q10 9 22 9q10 0 21 -11l117 -116l-27 -29q-8 -8 -16 -8t-20 9z" />
    <glyph glyph-name="a" unicode="a" horiz-adv-x="593" 
d="M252 62q47 0 90 24.5t69 72.5v73q-25 11 -64 16.5t-71 5.5q-66 0 -101 -25.5t-35 -70.5q0 -48 32.5 -72t79.5 -24zM556 63q5 -15 5 -31q0 -14 -17 -26.5t-48 -12.5q-32 0 -54.5 23t-27.5 64q-26 -42 -73 -67t-107 -25q-41 0 -74 12t-57 34t-37 53t-13 68q0 83 57.5 128.5
t154.5 45.5q38 0 77.5 -8.5t68.5 -22.5v44q0 65 -41 97t-117 32q-38 0 -74.5 -7.5t-68.5 -24.5q-5 6 -8.5 17t-3.5 21t13.5 22.5t37 22.5t55.5 17t70 7q104 0 164 -52t60 -156v-220q0 -32 10 -43.5t28 -11.5h20z" />
    <glyph glyph-name="b" unicode="b" horiz-adv-x="638" 
d="M360 546q47 0 88 -18t71.5 -51t48 -81t17.5 -108q0 -63 -20 -118t-56 -95.5t-86 -63.5t-109 -23q-54 0 -96.5 17t-72.5 48.5t-46 77t-16 101.5v496q32 8 60 8q27 0 27 -21v-257q33 40 82 64t108 24zM338 472q-45 0 -90.5 -24.5t-77.5 -65.5v-150q0 -44 12 -75.5t32 -52.5
t46.5 -31t55.5 -10q37 0 69.5 16.5t57.5 46t39.5 70.5t14.5 89t-12.5 83.5t-34 58.5t-50.5 34t-62 11z" />
    <glyph glyph-name="c" unicode="c" horiz-adv-x="552" 
d="M509 439q5 -10 5 -18q0 -16 -16 -25q-11 -7 -27.5 -11t-31.5 -6q-14 42 -47 67t-88 25q-34 0 -64 -13t-52 -37t-34.5 -58.5t-12.5 -77.5q0 -55 18 -97t48 -70t68.5 -42t79.5 -14q71 0 132 31q5 -8 8.5 -18.5t3.5 -19.5q0 -11 -11.5 -22.5t-32.5 -21.5t-50 -16.5t-64 -6.5
q-55 0 -106.5 19.5t-92 57.5t-65 92.5t-24.5 125.5q0 61 19.5 110t53.5 83t81 52t101 18q74 0 126 -30.5t75 -76.5z" />
    <glyph glyph-name="d" unicode="d" horiz-adv-x="652" 
d="M468 730h59q28 0 28 -23v-589q0 -32 10 -43.5t28 -11.5h20q5 -15 5 -31q0 -14 -17 -26.5t-48 -12.5q-33 0 -56 24.5t-28 74.5q-26 -48 -75.5 -76t-112.5 -28q-48 0 -90 17.5t-72.5 51t-48 81.5t-17.5 108q0 66 21 121t57 95t84 62t103 22q91 0 150 -53v237zM300 62
q48 0 94.5 34t73.5 105v216q-29 28 -64 41t-73 13q-41 0 -75.5 -17t-60 -46.5t-40 -70.5t-14.5 -89q0 -88 43 -137t116 -49z" />
    <glyph glyph-name="e" unicode="e" horiz-adv-x="575" 
d="M332 63q35 0 68.5 7t64.5 24q5 -7 8.5 -18t3.5 -21t-11.5 -22t-32 -22t-50 -16.5t-65.5 -6.5q-57 0 -105.5 20.5t-84 57.5t-55.5 88t-20 113q0 65 21 117t57 88t83.5 55t100.5 19q47 0 86 -14.5t67 -41t43.5 -62.5t15.5 -78q0 -22 -4 -42.5t-11 -35.5q-11 -24 -26 -32.5
t-43 -8.5h-300q4 -41 20.5 -72.5t41.5 -52.5t57.5 -32t69.5 -11zM311 471q-33 0 -62 -11.5t-51.5 -33t-36.5 -52t-18 -69.5h291q8 18 8 41q0 57 -34.5 91t-96.5 34z" />
    <glyph glyph-name="f" unicode="f" horiz-adv-x="428" 
d="M225 0h-59q-16 0 -22 5t-6 17v438h-86q-21 0 -21 26q0 25 6 48h101v30q0 89 43.5 133.5t118.5 44.5q25 0 47 -5t39 -12.5t27 -16.5t10 -16q0 -11 -4 -22t-9 -18q-17 7 -40.5 11t-49.5 4q-51 0 -73 -24t-22 -75v-34h159q23 0 23 -29v-45h-182v-460z" />
    <glyph glyph-name="g" unicode="g" horiz-adv-x="640" 
d="M468 534h59q28 0 28 -23v-501q0 -50 -19 -96.5t-56 -82.5t-91.5 -57.5t-125.5 -21.5q-89 0 -140 38.5t-51 97.5q0 36 22.5 70t70.5 60l4 -2q-53 29 -84.5 88t-31.5 142q0 66 21 121t57 95t84 62t103 22q91 0 150 -53v41zM300 62q48 0 94.5 34t73.5 105v216q-29 28 -64 41
t-73 13q-41 0 -75.5 -17t-60 -46.5t-40 -70.5t-14.5 -89q0 -88 43 -137t116 -49zM265 -174q42 0 79 12.5t64.5 36t43.5 57t16 75.5v83q-27 -47 -76 -74.5t-111 -27.5q-31 0 -63 8q-30 -21 -44.5 -44.5t-14.5 -53.5q0 -32 27.5 -52t78.5 -20z" />
    <glyph glyph-name="h" unicode="h" horiz-adv-x="641" 
d="M113 0q-16 0 -22 5t-6 17v705q30 9 60 9q27 0 27 -21v-239q34 31 82 50.5t100 19.5q93 0 141.5 -61t48.5 -170v-199q0 -29 8.5 -41t26.5 -12h22q5 -11 5 -31q0 -14 -17 -26.5t-46 -12.5q-18 0 -33.5 5.5t-27 19t-18.5 36t-7 55.5v212q0 74 -30.5 112t-95.5 38
q-41 0 -84 -16.5t-75 -47.5v-407h-59z" />
    <glyph glyph-name="i" unicode="i" horiz-adv-x="270" 
d="M128 628q-21 0 -37.5 15t-16.5 41q0 24 14.5 38.5t36.5 14.5t38 -15.5t16 -41.5q0 -24 -14 -38t-37 -14zM85 531q30 9 60 9q27 0 27 -21v-403q0 -29 8.5 -41t26.5 -12h22q5 -11 5 -31q0 -14 -17 -26.5t-46 -12.5q-18 0 -33.5 5.5t-27 19t-18.5 36t-7 55.5v422z" />
    <glyph glyph-name="j" unicode="j" horiz-adv-x="263" 
d="M123 -146q-25 -31 -48.5 -44.5t-36.5 -13.5q-11 0 -20.5 12t-13.5 23q40 39 63 85.5t23 98.5v516q30 9 60 9q27 0 27 -21v-510q0 -46 -15 -86t-39 -69zM133 628q-21 0 -37.5 15t-16.5 41q0 24 14.5 38.5t36.5 14.5t38 -15.5t16 -41.5q0 -24 -14 -38t-37 -14z" />
    <glyph glyph-name="k" unicode="k" horiz-adv-x="579" 
d="M113 0q-16 0 -22 5t-6 17v705q30 9 60 9q27 0 27 -21v-436q37 22 75.5 51t76 63t71 71t60.5 76q35 -12 47 -23.5t12 -25.5q0 -17 -18 -42t-46.5 -53t-62.5 -56.5t-66 -52.5q38 -59 80.5 -111t75.5 -84q30 -29 50 -29h20q5 -15 5 -31q0 -14 -17 -26.5t-45 -12.5
q-35 0 -73 35q-39 36 -82.5 92.5t-80.5 121.5q-20 -13 -41 -25.5t-41 -23.5v-193h-59z" />
    <glyph glyph-name="l" unicode="l" horiz-adv-x="313" 
d="M302 40q0 -14 -24 -30.5t-68 -16.5q-62 0 -93.5 38.5t-31.5 110.5v586q32 8 60 8q27 0 27 -21v-576q0 -40 15.5 -57.5t45.5 -17.5q14 0 30 3t28 8q5 -7 8 -17t3 -18z" />
    <glyph glyph-name="m" unicode="m" horiz-adv-x="916" 
d="M731 358q0 60 -27.5 86.5t-72.5 26.5q-37 0 -73.5 -17t-66.5 -50q2 -12 3 -24t1 -26v-354h-59q-28 0 -28 22v335q0 60 -27 87t-72 27q-36 0 -71.5 -16.5t-65.5 -52.5v-402h-59q-16 0 -22 5t-6 17v509q30 9 60 9q27 0 27 -21v-45q32 35 72.5 53.5t84.5 18.5q48 0 84 -19.5
t58 -60.5q37 38 83.5 59t95.5 21q36 0 67 -11t53.5 -34.5t35 -59.5t12.5 -86v-239q0 -29 8.5 -41t26.5 -12h22q5 -11 5 -31q0 -14 -17 -26.5t-46 -12.5q-18 0 -33.5 5.5t-27 19t-18.5 36t-7 55.5v249z" />
    <glyph glyph-name="n" unicode="n" horiz-adv-x="641" 
d="M113 0q-16 0 -22 5t-6 17v509q30 9 60 9q27 0 27 -21v-43q34 31 82 50.5t100 19.5q93 0 141.5 -61t48.5 -170v-199q0 -29 8.5 -41t26.5 -12h22q5 -11 5 -31q0 -14 -17 -26.5t-46 -12.5q-18 0 -33.5 5.5t-27 19t-18.5 36t-7 55.5v212q0 74 -30.5 112t-95.5 38
q-41 0 -84 -16.5t-75 -47.5v-407h-59z" />
    <glyph glyph-name="o" unicode="o" horiz-adv-x="628" 
d="M314 546q53 0 100.5 -18.5t83 -54.5t56.5 -88t21 -118t-21 -118t-56.5 -88t-83 -54.5t-100.5 -18.5t-100.5 18.5t-83 54.5t-56.5 88t-21 118t21 118t56.5 88t83 54.5t100.5 18.5zM319 63q33 0 63 12t53.5 36t37 61.5t13.5 88.5q0 52 -14.5 91t-39.5 65.5t-57 40t-66 13.5
q-33 0 -63 -12t-53.5 -36t-37 -61.5t-13.5 -88.5q0 -52 14.5 -91t39.5 -65.5t56.5 -40t66.5 -13.5z" />
    <glyph glyph-name="p" unicode="p" horiz-adv-x="640" 
d="M172 -213h-59q-28 0 -28 22v723q32 8 60 8q27 0 27 -21v-76q26 47 75 75t112 28q48 0 90 -17.5t72.5 -51t48 -81.5t17.5 -108q0 -66 -21 -121t-57 -95t-84 -62t-103 -22q-91 0 -150 53v-254zM340 472q-48 0 -94.5 -34t-73.5 -105v-216q29 -28 64 -41t73 -13q41 0 75.5 17
t60 46.5t40 70.5t14.5 89q0 88 -43 137t-116 49z" />
    <glyph glyph-name="q" unicode="q" horiz-adv-x="640" 
d="M468 534h59q28 0 28 -23v-724h-59q-16 0 -22 5.5t-6 17.5v280q-27 -47 -76 -74.5t-111 -27.5q-48 0 -90 17.5t-72.5 51t-48 81.5t-17.5 108q0 66 21 121t57 95t84 62t103 22q91 0 150 -53v41zM300 62q48 0 94.5 34t73.5 105v216q-29 28 -64 41t-73 13q-41 0 -75.5 -17
t-60 -46.5t-40 -70.5t-14.5 -89q0 -88 43 -137t116 -49z" />
    <glyph glyph-name="r" unicode="r" horiz-adv-x="454" 
d="M419 525q14 -8 19 -14.5t5 -16.5q0 -12 -9 -22q-7 -9 -16.5 -17t-18.5 -13q-20 15 -44.5 22t-50.5 7q-48 0 -81.5 -29.5t-50.5 -89.5v-352h-59q-16 0 -22 5t-6 17v509q30 9 60 9q27 0 27 -21v-64q24 42 63.5 66.5t92.5 24.5q29 0 52 -5.5t39 -15.5z" />
    <glyph glyph-name="s" unicode="s" horiz-adv-x="499" 
d="M366 393q-14 38 -45 58t-72 20q-45 0 -72 -22t-27 -56q0 -38 30.5 -59.5t98.5 -38.5q88 -22 127 -59.5t39 -97.5q0 -69 -49.5 -109.5t-144.5 -40.5q-37 0 -68.5 7t-55 17.5t-36.5 22.5t-13 22q0 11 4 22t9 17q32 -16 70.5 -25t78.5 -9q118 0 118 72q0 31 -23.5 51.5
t-85.5 34.5q-99 23 -142.5 65t-43.5 108q0 34 13.5 62t38 48t59.5 31.5t77 11.5q63 0 111.5 -24t71.5 -66q2 -5 4 -9t2 -9q0 -13 -14 -24q-21 -16 -60 -21z" />
    <glyph glyph-name="t" unicode="t" horiz-adv-x="453" 
d="M313 63q21 0 43.5 4t40.5 12q5 -6 9 -17t4 -21q0 -9 -8 -18t-23.5 -17t-37 -13t-48.5 -5q-74 0 -119.5 46t-45.5 137v289h-75q-21 0 -21 26q0 12 1.5 24.5t4.5 23.5h90v151q32 8 60 8q27 0 27 -21v-138h170q22 0 22 -28v-46h-192v-295q0 -55 28 -78.5t70 -23.5z" />
    <glyph glyph-name="u" unicode="u" horiz-adv-x="614" 
d="M537 225q0 -56 -17 -99.5t-47 -74.5t-72.5 -47t-93.5 -16t-93.5 16t-73 47t-47.5 74.5t-17 99.5v306q30 9 60 9q27 0 27 -21v-300q0 -37 11.5 -66t31 -49.5t45.5 -31t56 -10.5t56 10.5t45.5 31t30.5 49.5t11 66v315h59q28 0 28 -23v-286z" />
    <glyph glyph-name="v" unicode="v" horiz-adv-x="589" 
d="M347 18q-11 -18 -35 -18h-77l-194 514q17 12 35 19.5t32 7.5q17 0 22 -16l161 -438q25 42 49.5 95t47 111.5t41 119.5t31.5 121h58q33 0 27 -25q-14 -62 -35 -126.5t-46.5 -127.5t-55 -123.5t-61.5 -113.5z" />
    <glyph glyph-name="w" unicode="w" horiz-adv-x="874" 
d="M799 534q29 0 25 -25q-20 -117 -56.5 -242t-92.5 -247q-9 -20 -33 -20h-82l-120 429q-17 -98 -49.5 -205.5t-74.5 -205.5q-5 -11 -12.5 -14.5t-19.5 -3.5h-80l-159 513q17 12 36 20t33 8q16 0 21 -17l125 -436q39 89 71 202t53 244h75q28 0 35 -25l123 -421
q40 92 71.5 206.5t50.5 239.5h60z" />
    <glyph glyph-name="x" unicode="x" horiz-adv-x="566" 
d="M530 63q4 -12 4 -28q0 -15 -15.5 -28.5t-45.5 -13.5q-22 0 -41.5 14t-45.5 49l-114 151q-44 -44 -81.5 -96.5t-61.5 -110.5h-64q-23 0 -23 16q0 5 3 11q26 63 74 127t105 116l-170 223q17 25 32.5 35.5t26.5 10.5q13 0 20 -10l153 -202q42 44 79 96t60 111h65
q22 0 22 -17q0 -5 -3 -11q-26 -63 -73 -126.5t-103 -115.5l126 -166q15 -20 27 -27.5t29 -7.5h15z" />
    <glyph glyph-name="y" unicode="y" horiz-adv-x="627" 
d="M83 532q32 8 60 8q27 0 27 -21v-306q0 -74 30.5 -112t95.5 -38q41 0 84 16.5t75 47.5v408h59q28 0 28 -22v-510q0 -50 -16.5 -95.5t-50 -80t-84 -55t-117.5 -20.5q-86 0 -135.5 38t-49.5 97q0 36 20 68t64 58q-45 26 -67.5 78.5t-22.5 127.5v313zM455 58
q-34 -31 -82 -50.5t-100 -19.5q-12 0 -22.5 1t-21.5 3q-29 -20 -41 -44t-12 -51q0 -32 26 -52t74 -20q39 0 72 11.5t57 33t37 53t13 71.5v64z" />
    <glyph glyph-name="z" unicode="z" horiz-adv-x="505" 
d="M164 73h276q22 0 22 -28v-45h-361q-12 0 -19 3t-12 11q-6 9 -10.5 21.5t-6.5 25.5l289 399h-260q-21 0 -21 26q0 25 6 48h339q12 0 19 -3t12 -11q6 -9 10.5 -21.5t6.5 -25.5z" />
    <glyph glyph-name="braceleft" unicode="{" horiz-adv-x="410" 
d="M87 270q-13 2 -18.5 8t-5.5 21v48q56 0 81 31t25 78v128q0 46 13.5 78t37.5 51.5t56.5 28t70.5 8.5h20q20 0 20 -26q0 -11 -1.5 -24t-4.5 -24h-50q-35 0 -55 -23.5t-20 -69.5v-121q0 -59 -20.5 -95.5t-66.5 -56.5q46 -20 66.5 -56.5t20.5 -95.5v-122q0 -47 21.5 -69.5
t53.5 -22.5h35q22 0 22 -28v-46h-33q-39 0 -73 8t-59 27t-39.5 51t-14.5 80v128q0 49 -22 75t-60 31z" />
    <glyph glyph-name="bar" unicode="|" horiz-adv-x="309" 
d="M145 -200q-16 0 -22 5.5t-6 17.5v940q10 3 23 4.5t24 1.5q28 0 28 -21v-948h-47z" />
    <glyph glyph-name="braceright" unicode="}" horiz-adv-x="410" 
d="M322 270q-39 -5 -60.5 -31.5t-21.5 -74.5v-128q0 -48 -14.5 -80t-39.5 -51t-59 -27t-73 -8h-33v46q0 28 22 28h27q34 0 54.5 23t20.5 69v122q0 59 20.5 95.5t66.5 56.5q-46 20 -66.5 56.5t-20.5 95.5v121q0 48 -21.5 70.5t-53.5 22.5h-42q-3 11 -4.5 24t-1.5 24
q0 26 21 26h20q37 0 69.5 -8.5t56.5 -28t37.5 -51.5t13.5 -78v-128q0 -47 25 -78t81 -31v-48q0 -15 -5.5 -21t-18.5 -8z" />
    <glyph glyph-name="asciitilde" unicode="~" horiz-adv-x="649" 
d="M98 263q-19 8 -19 24q0 5 1 11.5t3 11.5q13 47 45.5 76t89.5 29t109 -37q21 -15 36 -24.5t25.5 -15.5t18.5 -8t17 -2q22 0 40 19t26 69l62 -13q20 -5 17 -23q-10 -57 -44.5 -91.5t-95.5 -34.5q-57 0 -109 37q-21 15 -36 24.5t-25.5 15.5t-18.5 8t-17 2q-23 0 -40.5 -18.5
t-25.5 -68.5q-14 -1 -30.5 1.5t-28.5 7.5z" />
    <glyph glyph-name="uni00A0" unicode="&#xa0;" horiz-adv-x="300" 
 />
    <glyph glyph-name="exclamdown" unicode="&#xa1;" horiz-adv-x="294" 
d="M185 333q3 -39 5 -84t4 -92.5t3 -96t1 -93.5v-131q-32 -8 -69 -8q-31 0 -31 22v117q0 92 3.5 192.5t10.5 195.5h46q15 0 20 -5.5t7 -16.5zM146 546q23 0 40.5 -16t17.5 -45q0 -26 -15.5 -41t-38.5 -15t-41 16t-18 45q0 26 16 41t39 15z" />
    <glyph glyph-name="cent" unicode="&#xa2;" horiz-adv-x="552" 
d="M290 -112q-28 0 -28 23v88q-43 12 -81 36t-66.5 60t-45 83t-16.5 105q0 54 15.5 98.5t43 77.5t65.5 54t83 29v100q24 8 53 8q27 0 27 -21v-85q62 -7 105.5 -35.5t63.5 -69.5q5 -10 5 -18q0 -16 -16 -25q-11 -7 -27.5 -11t-31.5 -6q-14 42 -47 67t-88 25q-34 0 -64 -13
t-52 -37t-34.5 -58.5t-12.5 -77.5q0 -55 18 -97t48 -70t68.5 -42t79.5 -14q71 0 132 31q5 -8 8.5 -18.5t3.5 -19.5q0 -11 -11.5 -22.5t-32 -21t-49.5 -16.5t-63 -7v-100h-53z" />
    <glyph glyph-name="sterling" unicode="&#xa3;" horiz-adv-x="596" 
d="M64 70q18 15 29 30.5t17.5 34t8.5 41.5t2 54v70h-47q-21 0 -21 19q0 9 1 19.5t3 18.5h64v126q0 54 15.5 96.5t43 72t66 45t84.5 15.5q75 0 128.5 -39.5t77.5 -100.5q6 -14 6 -24q0 -14 -21 -24q-27 -13 -59 -16q-17 66 -52 95.5t-80 29.5q-53 0 -85.5 -37t-32.5 -109
v-130h206q12 0 17.5 -6t5.5 -22v-29h-229v-63q0 -64 -11.5 -100.5t-36.5 -59.5h367q22 0 22 -28v-49h-466q-12 0 -17.5 6t-5.5 22v42z" />
    <glyph glyph-name="currency" unicode="&#xa4;" horiz-adv-x="692" 
d="M346 553q35 0 67.5 -10t59.5 -28l92 92q22 -11 42 -31q19 -19 4 -34l-81 -82q20 -27 30.5 -59.5t10.5 -68.5q0 -37 -10.5 -69t-28.5 -58l91 -91q-6 -11 -13.5 -21t-18.5 -21q-19 -19 -34 -4l-82 82q-56 -39 -129 -39q-35 0 -67.5 10t-59.5 28l-92 -92q-22 11 -42 31
q-19 19 -4 34l81 82q-20 27 -30.5 59.5t-10.5 68.5q0 71 39 127l-91 91q13 23 32 42t34 4l82 -82q56 39 129 39zM340 479q-27 0 -51.5 -10t-42.5 -29t-29 -45t-11 -57q0 -36 11.5 -64.5t31.5 -48t46.5 -30t56.5 -10.5q27 0 51.5 10t42.5 29t29 44.5t11 57.5q0 36 -11.5 64.5
t-31.5 48t-46.5 30t-56.5 10.5z" />
    <glyph glyph-name="yen" unicode="&#xa5;" horiz-adv-x="655" 
d="M278 311v10l-244 342q19 22 36 32t29 10q9 0 15 -3t13 -13l202 -289q27 29 55.5 64t54.5 74t50 80t42 82h61q28 0 28 -17q0 -5 -2.5 -11t-4.5 -11q-42 -87 -106 -176.5t-138 -162.5v-11h122q10 0 14 -5t4 -19v-25h-140v-44h122q10 0 14 -5t4 -19v-26h-140v-168h-63
q-28 0 -28 22v146h-126q-14 0 -14 17q0 7 1 16t3 17h136v44h-126q-14 0 -14 17q0 7 1 15.5t3 16.5h136z" />
    <glyph glyph-name="brokenbar" unicode="&#xa6;" horiz-adv-x="309" 
d="M145 365q-16 0 -22 5t-6 17v316q10 3 23 4.5t24 1.5q28 0 28 -21v-323h-47zM145 -140q-16 0 -22 5.5t-6 17.5v315q10 3 23 4.5t24 1.5q28 0 28 -21v-323h-47z" />
    <glyph glyph-name="section" unicode="&#xa7;" horiz-adv-x="504" 
d="M363 559q-13 38 -43 58t-71 20q-45 0 -72 -22t-27 -56q0 -19 7.5 -33t23 -25.5t40 -21.5t58.5 -20q85 -26 125.5 -63.5t40.5 -94.5q0 -43 -22.5 -74t-63.5 -48q45 -22 65.5 -54t20.5 -75q0 -68 -49.5 -109t-144.5 -41q-37 0 -68.5 7t-55 17.5t-36.5 22.5t-13 23
q0 10 4 21t9 17q32 -15 70.5 -24t78.5 -9q118 0 118 71q0 32 -24.5 52t-84.5 34q-99 24 -142.5 64.5t-43.5 102.5q0 42 24 73t66 49q-48 26 -69 60t-21 78q0 34 13.5 62t38 48t59.5 31.5t77 11.5q63 0 111.5 -24t71.5 -66q5 -10 5 -18q0 -14 -13 -24q-21 -16 -63 -21z
M150 304q0 -22 9.5 -37.5t26.5 -26.5t40.5 -19t52.5 -14q42 12 60.5 37t18.5 50q0 22 -9.5 37.5t-26.5 26.5t-41 19t-52 14q-42 -13 -60.5 -37.5t-18.5 -49.5z" />
    <glyph glyph-name="dieresis" unicode="&#xa8;" horiz-adv-x="417" 
d="M170 643q0 -23 -14 -37t-35 -14t-37 14.5t-16 40.5q0 23 14 37t36 14q20 0 36 -14.5t16 -40.5zM348 643q0 -23 -14 -37t-35 -14t-37 14.5t-16 40.5q0 23 14 37t36 14q20 0 36 -14.5t16 -40.5z" />
    <glyph glyph-name="copyright" unicode="&#xa9;" horiz-adv-x="824" 
d="M774 350q0 -75 -28.5 -141t-77.5 -115t-115 -77.5t-141 -28.5t-141 28.5t-115 77.5t-77.5 115t-28.5 141t28.5 141t77.5 115t115 77.5t141 28.5t141 -28.5t115 -77.5t77.5 -115t28.5 -141zM724 350q0 65 -24.5 122.5t-66.5 100.5t-99 68t-122 25t-122 -25t-99 -68
t-66.5 -100.5t-24.5 -122.5q0 -66 24.5 -123.5t66.5 -100t99 -67.5t122 -25t122 25t99 67.5t66.5 100t24.5 123.5zM540 231q3 -5 5.5 -12.5t2.5 -15.5t-9 -16t-24 -15t-35 -11t-42 -4q-39 0 -75 14.5t-63.5 41t-44 64.5t-16.5 85q0 41 13.5 74.5t37.5 57t56 36.5t69 13
q46 0 83.5 -19.5t54.5 -51.5q4 -8 4 -15q0 -9 -10 -16q-9 -6 -20.5 -10t-23.5 -6q-12 27 -34 44t-56 17q-45 0 -73.5 -32t-28.5 -91q0 -35 11 -63t30.5 -47t46 -29t56.5 -10q49 0 85 17z" />
    <glyph glyph-name="ordfeminine" unicode="&#xaa;" horiz-adv-x="448" 
d="M192 649q-27 0 -53.5 -6t-49.5 -17q-4 5 -6.5 15t-2.5 18q0 7 9.5 15.5t26.5 16t40.5 12.5t51.5 5q75 0 120.5 -37.5t45.5 -111.5v-156q0 -18 6.5 -25t21.5 -7h9q5 -12 5 -24q0 -14 -13.5 -22.5t-35.5 -8.5t-39.5 13t-24.5 38q-19 -26 -51 -40.5t-71 -14.5
q-29 0 -54.5 8.5t-44.5 24.5t-29.5 37.5t-10.5 48.5q0 54 39 88.5t107 34.5q32 0 60.5 -5.5t48.5 -16.5v30q0 87 -105 87zM297 480q-17 8 -40.5 12t-45.5 4q-43 0 -67 -16t-24 -48t24 -47t55 -15q29 0 55 13.5t43 45.5v51z" />
    <glyph glyph-name="guillemotleft" unicode="&#xab;" horiz-adv-x="590" 
d="M78 271q-6 5 -10.5 12t-4.5 18v40l208 147q11 8 18 8q15 0 15 -24q0 -25 -6 -49l-163 -111l154 -106q8 -6 11 -12t3 -17v-64zM300 271q-6 5 -10.5 12t-4.5 18v40l208 147q11 8 18 8q15 0 15 -24q0 -25 -6 -49l-163 -111l154 -106q8 -6 11 -12t3 -17v-64z" />
    <glyph glyph-name="logicalnot" unicode="&#xac;" horiz-adv-x="649" 
d="M494 175q-28 0 -28 22v184h-361q-20 0 -20 25q0 11 1.5 24.5t4.5 23.5h439q12 0 17.5 -6t5.5 -22v-251h-59z" />
    <glyph glyph-name="uni00AD" unicode="&#xad;" horiz-adv-x="434" 
d="M348 371q23 0 23 -28v-50h-266q-20 0 -20 27q0 11 1.5 25t4.5 26h257z" />
    <glyph glyph-name="registered" unicode="&#xae;" horiz-adv-x="824" 
d="M50 350q0 75 28.5 141t77.5 115t115 77.5t141 28.5t141 -28.5t115 -77.5t77.5 -115t28.5 -141t-28.5 -141t-77.5 -115t-115 -77.5t-141 -28.5t-141 28.5t-115 77.5t-77.5 115t-28.5 141zM100 350q0 -66 24.5 -123.5t66.5 -100.5t99 -67.5t122 -24.5q64 0 121 24.5
t99 67.5t66.5 100.5t24.5 123.5q0 65 -24.5 122.5t-66.5 100t-99 67.5t-121 25q-65 0 -122 -25t-99 -67.5t-66.5 -100t-24.5 -122.5zM532 157q-24 0 -45 20q-20 18 -39 45t-34 59q-17 0 -34.5 1.5t-31.5 6.5v-126h-55q-17 0 -17 13v367h135q70 0 110 -36t40 -95
q0 -43 -21.5 -74t-58.5 -45q11 -20 25 -38t28 -32q13 -13 30 -13h10q2 -4 3 -11.5t1 -12.5q0 -11 -13 -20t-33 -9zM348 344q12 -3 26 -4.5t28 -1.5q38 0 62 18t24 56t-24 56t-69 18h-47v-142z" />
    <glyph glyph-name="macron" unicode="&#xaf;" horiz-adv-x="417" 
d="M323 678q19 0 19 -25v-39h-250q-18 0 -18 23q0 11 2 22t4 19h243z" />
    <glyph glyph-name="degree" unicode="&#xb0;" horiz-adv-x="396" 
d="M200 478q35 0 57.5 24t22.5 63q0 40 -24.5 65.5t-59.5 25.5t-57.5 -24t-22.5 -63q0 -40 24.5 -65.5t59.5 -25.5zM198 422q-33 0 -60.5 11t-47.5 30.5t-31 46t-11 57.5t11 57.5t31 46t47.5 30.5t60.5 11t60.5 -11t47.5 -30.5t31 -46t11 -57.5t-11 -57.5t-31 -46
t-47.5 -30.5t-60.5 -11z" />
    <glyph glyph-name="plusminus" unicode="&#xb1;" horiz-adv-x="649" 
d="M308 164q-28 0 -28 22v183h-175q-20 0 -20 25q0 11 1.5 24.5t4.5 23.5h189v196q28 10 60 10q27 0 27 -21v-185h173q12 0 17.5 -6t5.5 -22v-45h-196v-205h-59zM105 0q-20 0 -20 25q0 11 1.5 24t4.5 24h449q23 0 23 -28v-45h-458z" />
    <glyph glyph-name="uni00B2" unicode="&#xb2;" horiz-adv-x="397" 
d="M343 568q0 -34 -12 -65t-33.5 -59t-51 -53.5t-63.5 -47.5h143q19 0 19 -23v-36h-252q-18 0 -26 14q-3 5 -6 15.5t-5 22.5q42 22 80.5 48t68.5 56t48 62.5t18 66.5q0 39 -22.5 59.5t-54.5 20.5q-29 0 -51 -18.5t-33 -58.5q-12 1 -25 4t-24 9q-13 8 -13 19q0 8 4 17
q17 38 53 62.5t90 24.5q66 0 107 -38.5t41 -101.5z" />
    <glyph glyph-name="uni00B3" unicode="&#xb3;" horiz-adv-x="397" 
d="M167 482q-22 3 -29 19q-2 5 -4 11t-3 14l104 115h-163q-19 0 -19 21q0 8 1.5 18.5t3.5 19.5h230q12 0 18.5 -3.5t11.5 -11.5q7 -12 10 -30l-114 -127q59 -12 93 -42.5t34 -83.5q0 -58 -45 -92t-119 -34q-27 0 -51 5.5t-42 13.5t-28.5 18t-10.5 18q0 18 9 33
q26 -13 57.5 -21t59.5 -8q48 0 73.5 18t25.5 48q0 37 -26 56t-77 25z" />
    <glyph glyph-name="acute" unicode="&#xb4;" horiz-adv-x="417" 
d="M176 573q-12 -9 -20 -9t-16 8l-27 29l117 116q11 11 21 11q11 0 22 -9q8 -8 16.5 -18.5t14.5 -22.5z" />
    <glyph glyph-name="mu" unicode="&#xb5;" horiz-adv-x="621" 
d="M172 -228h-59q-16 0 -22 5.5t-6 17.5v736q30 9 60 9q27 0 27 -21v-387q32 -31 75 -47.5t84 -16.5q65 0 95.5 38t30.5 112v316h59q28 0 28 -23v-287q0 -109 -48.5 -170t-141.5 -61q-52 0 -100 19.5t-82 50.5v-291z" />
    <glyph glyph-name="paragraph" unicode="&#xb6;" horiz-adv-x="590" 
d="M529 700q11 0 15 -5.5t4 -19.5v-24h-83v-782h-30q-14 0 -19.5 4t-5.5 15v763h-84v-782h-32q-15 0 -20 4t-5 15v451q-45 0 -84.5 11.5t-68.5 34.5t-46 56.5t-17 78.5q0 44 17 78t45.5 56.5t67 34t81.5 11.5h265z" />
    <glyph glyph-name="periodcentered" unicode="&#xb7;" horiz-adv-x="329" 
d="M221 329q0 -26 -15.5 -41t-39.5 -15q-23 0 -40.5 16t-17.5 45q0 26 15.5 41t39.5 15q23 0 40.5 -16t17.5 -45z" />
    <glyph glyph-name="cedilla" unicode="&#xb8;" horiz-adv-x="417" 
d="M138 -90q-12 6 -12 12q0 2 2 6l38 72h77l-33 -59q42 -7 65.5 -29t23.5 -57q0 -44 -32 -68.5t-86 -24.5q-17 0 -36 2.5t-34 7.5v35q0 18 15 18q8 0 20.5 -3t25.5 -3q24 0 38.5 9.5t14.5 28.5q0 47 -87 53z" />
    <glyph glyph-name="uni00B9" unicode="&#xb9;" horiz-adv-x="397" 
d="M214 284q-23 0 -23 19v316l-89 -56q-7 4 -15 10.5t-13 13.5q-7 10 -7 17q0 10 11 18l124 78h38q23 0 23 -20v-396h-49z" />
    <glyph glyph-name="ordmasculine" unicode="&#xba;" horiz-adv-x="448" 
d="M224 312q-37 0 -71 12.5t-60 37.5t-41.5 62t-15.5 86t15.5 86t41.5 62t60 37.5t71 12.5t71 -12.5t60 -37.5t41.5 -62t15.5 -86t-15.5 -86t-41.5 -62t-60 -37.5t-71 -12.5zM228 373q45 0 76.5 34t31.5 99q0 63 -32 102t-84 39q-45 0 -76 -34t-31 -99q0 -63 31.5 -102
t83.5 -39z" />
    <glyph glyph-name="guillemotright" unicode="&#xbb;" horiz-adv-x="590" 
d="M286 113v64q0 11 3 17t11 12l154 106l-163 111q-6 24 -6 49q0 24 15 24q7 0 18 -8l208 -147v-40q0 -11 -4.5 -18t-10.5 -12zM64 113v64q0 11 3 17t11 12l154 106l-163 111q-6 24 -6 49q0 24 15 24q7 0 18 -8l208 -147v-40q0 -11 -4.5 -18t-10.5 -12z" />
    <glyph glyph-name="onequarter" unicode="&#xbc;" horiz-adv-x="947" 
d="M214 284q-23 0 -23 19v316l-89 -56q-7 4 -15 10.5t-13 13.5q-7 10 -7 17q0 10 11 18l124 78h38q23 0 23 -20v-396h-49zM357 0h-39q-24 0 -24 16q0 6 3 12l281 672h39q24 0 24 -16q0 -6 -3 -12zM792 344q-21 -18 -41 -41.5t-38 -50.5t-32.5 -55t-23.5 -55h135v202zM917 83
h-54v-83h-48q-23 0 -23 19v64h-175q-19 0 -26 13q-9 15 -10 36q11 37 31.5 77.5t47.5 79t59.5 71.5t67.5 55q22 6 47 6q17 0 23 -5.5t6 -18.5v-255h36q18 0 18 -23v-36z" />
    <glyph glyph-name="onehalf" unicode="&#xbd;" horiz-adv-x="947" 
d="M214 284q-23 0 -23 19v316l-89 -56q-7 4 -15 10.5t-13 13.5q-7 10 -7 17q0 10 11 18l124 78h38q23 0 23 -20v-396h-49zM357 0h-39q-24 0 -24 16q0 6 3 12l281 672h39q24 0 24 -16q0 -6 -3 -12zM892 284q0 -34 -12 -65t-33.5 -59t-51 -53.5t-63.5 -47.5h143q19 0 19 -23
v-36h-252q-18 0 -26 14q-3 5 -6 15.5t-5 22.5q42 22 80.5 48t68.5 56t48 62.5t18 66.5q0 39 -22.5 59.5t-54.5 20.5q-29 0 -51 -18.5t-33 -58.5q-12 1 -25 4t-24 9q-13 8 -13 19q0 8 4 17q17 38 53 62.5t90 24.5q66 0 107 -38.5t41 -101.5z" />
    <glyph glyph-name="threequarters" unicode="&#xbe;" horiz-adv-x="947" 
d="M167 482q-22 3 -29 19q-2 5 -4 11t-3 14l104 115h-163q-19 0 -19 21q0 8 1.5 18.5t3.5 19.5h230q12 0 18.5 -3.5t11.5 -11.5q7 -12 10 -30l-114 -127q59 -12 93 -42.5t34 -83.5q0 -58 -45 -92t-119 -34q-27 0 -51 5.5t-42 13.5t-28.5 18t-10.5 18q0 18 9 33
q26 -13 57.5 -21t59.5 -8q48 0 73.5 18t25.5 48q0 37 -26 56t-77 25zM357 0h-39q-24 0 -24 16q0 6 3 12l281 672h39q24 0 24 -16q0 -6 -3 -12zM792 344q-21 -18 -41 -41.5t-38 -50.5t-32.5 -55t-23.5 -55h135v202zM917 83h-54v-83h-48q-23 0 -23 19v64h-175q-19 0 -26 13
q-9 15 -10 36q11 37 31.5 77.5t47.5 79t59.5 71.5t67.5 55q22 6 47 6q17 0 23 -5.5t6 -18.5v-255h36q18 0 18 -23v-36z" />
    <glyph glyph-name="questiondown" unicode="&#xbf;" horiz-adv-x="557" 
d="M291 546q23 0 40.5 -16t17.5 -45q0 -26 -15.5 -41t-38.5 -15t-40.5 16t-17.5 45q0 26 15.5 41t38.5 15zM279 -178q-48 0 -87.5 14t-68 39.5t-44 61.5t-15.5 79q0 60 28 105t87 95q20 17 33.5 30.5t21.5 26t11 25.5t3 29v28h62q16 0 22 -5t6 -17v-15q0 -23 -5 -42.5
t-16 -38t-29 -37.5t-45 -41q-47 -38 -66.5 -70t-19.5 -73q0 -52 34 -83.5t88 -31.5q50 0 91 33.5t55 97.5q17 -2 34 -6t28 -12q17 -10 17 -24q0 -11 -5 -23q-26 -65 -81.5 -105t-138.5 -40z" />
    <glyph glyph-name="Agrave" unicode="&#xc0;" horiz-adv-x="671" 
d="M53 0q-12 0 -19.5 5t-7.5 14q0 4 2 10l248 660q17 8 38.5 12.5t41.5 4.5q19 0 27.5 -6.5t15.5 -23.5l254 -676h-69q-17 0 -24.5 4.5t-11.5 15.5l-58 162h-310l-65 -182h-62zM335 614l-128 -355h256zM221 872q6 12 14.5 22.5t16.5 18.5q10 9 22 9q10 0 21 -11l117 -116
l-27 -29q-8 -8 -16 -8t-20 9z" />
    <glyph glyph-name="Aacute" unicode="&#xc1;" horiz-adv-x="671" 
d="M53 0q-12 0 -19.5 5t-7.5 14q0 4 2 10l248 660q17 8 38.5 12.5t41.5 4.5q19 0 27.5 -6.5t15.5 -23.5l254 -676h-69q-17 0 -24.5 4.5t-11.5 15.5l-58 162h-310l-65 -182h-62zM335 614l-128 -355h256zM319 768q-12 -9 -20 -9t-16 8l-27 29l117 116q11 11 21 11q11 0 22 -9
q8 -8 16.5 -18.5t14.5 -22.5z" />
    <glyph glyph-name="Acircumflex" unicode="&#xc2;" horiz-adv-x="671" 
d="M53 0q-12 0 -19.5 5t-7.5 14q0 4 2 10l248 660q17 8 38.5 12.5t41.5 4.5q19 0 27.5 -6.5t15.5 -23.5l254 -676h-69q-17 0 -24.5 4.5t-11.5 15.5l-58 162h-310l-65 -182h-62zM335 614l-128 -355h256zM488 795l-28 -30q-10 -10 -19 -10q-11 0 -25 14l-82 82l-96 -96
q-48 18 -48 42q0 7 6 13l114 110h27q13 0 19.5 -2.5t15.5 -11.5z" />
    <glyph glyph-name="Atilde" unicode="&#xc3;" horiz-adv-x="671" 
d="M53 0q-12 0 -19.5 5t-7.5 14q0 4 2 10l248 660q17 8 38.5 12.5t41.5 4.5q19 0 27.5 -6.5t15.5 -23.5l254 -676h-69q-17 0 -24.5 4.5t-11.5 15.5l-58 162h-310l-65 -182h-62zM335 614l-128 -355h256zM191 811q0 14 5 27q20 59 77 59q20 0 35 -6t33 -21q16 -13 25 -17.5
t17 -4.5q13 0 20.5 10t12.5 41l45 -12q22 -6 17 -29q-8 -35 -28.5 -56t-54.5 -21q-19 0 -34 6t-33 21q-17 14 -25.5 18t-16.5 4q-13 0 -20.5 -9.5t-12.5 -38.5q-28 0 -46 8q-16 7 -16 21z" />
    <glyph glyph-name="Adieresis" unicode="&#xc4;" horiz-adv-x="671" 
d="M53 0q-12 0 -19.5 5t-7.5 14q0 4 2 10l248 660q17 8 38.5 12.5t41.5 4.5q19 0 27.5 -6.5t15.5 -23.5l254 -676h-69q-17 0 -24.5 4.5t-11.5 15.5l-58 162h-310l-65 -182h-62zM335 614l-128 -355h256zM297 837q0 -23 -14 -37t-35 -14t-37 14.5t-16 40.5q0 23 14 37t36 14
q20 0 36 -14.5t16 -40.5zM475 837q0 -23 -14 -37t-35 -14t-37 14.5t-16 40.5q0 23 14 37t36 14q20 0 36 -14.5t16 -40.5z" />
    <glyph glyph-name="Aring" unicode="&#xc5;" horiz-adv-x="671" 
d="M53 0q-12 0 -19.5 5t-7.5 14q0 4 2 10l248 660q17 8 38.5 12.5t41.5 4.5q19 0 27.5 -6.5t15.5 -23.5l254 -676h-69q-17 0 -24.5 4.5t-11.5 15.5l-58 162h-310l-65 -182h-62zM335 614l-128 -355h256zM335 928q41 0 67 -25.5t26 -63.5t-26 -63.5t-67 -25.5
q-40 0 -66.5 25.5t-26.5 63.5t26.5 63.5t66.5 25.5zM338 795q17 0 28.5 11.5t11.5 30.5q0 21 -12.5 33.5t-32.5 12.5q-17 0 -29 -11.5t-12 -30.5q0 -21 13 -33.5t33 -12.5z" />
    <glyph glyph-name="AE" unicode="&#xc6;" horiz-adv-x="891" 
d="M806 700q21 0 21 -26q0 -12 -2 -26t-5 -26h-320v-236h251q22 0 22 -28v-50h-273v-126q0 -60 15.5 -82.5t56.5 -22.5h241q22 0 22 -28v-49h-274q-75 0 -113 40t-38 142h-215l-88 -182h-64q-12 0 -20 5t-8 14q0 4 3 10l324 651q40 20 94 20h370zM410 623l-178 -364h178v364
z" />
    <glyph glyph-name="Ccedilla" unicode="&#xc7;" horiz-adv-x="687" 
d="M343 -90q-12 6 -12 12q0 2 2 6l34 65q-67 10 -123.5 40.5t-98 79t-64.5 113.5t-23 145q0 82 26 145.5t69.5 107t101 66t120.5 22.5q95 0 163 -41t100 -106q5 -10 5 -17q0 -23 -27 -34q-21 -10 -51 -13q-25 63 -75 97.5t-120 34.5q-42 0 -82 -17t-70.5 -49.5t-49 -81
t-18.5 -111.5q0 -73 23 -130.5t62.5 -97t93.5 -60t117 -20.5q42 0 84.5 9t77.5 29q5 -8 8.5 -19.5t3.5 -22.5t-14 -23.5t-38 -23.5t-56.5 -18.5t-70.5 -8.5l-26 -47q42 -7 65.5 -29t23.5 -57q0 -44 -32 -68.5t-86 -24.5q-17 0 -36 2.5t-34 7.5v35q0 18 15 18q8 0 20.5 -3
t25.5 -3q24 0 38.5 9.5t14.5 28.5q0 47 -87 53z" />
    <glyph glyph-name="Egrave" unicode="&#xc8;" horiz-adv-x="574" 
d="M245 0q-75 0 -113.5 39t-38.5 135v526h396q20 0 20 -26q0 -12 -1.5 -26t-4.5 -26h-319v-236h249q22 0 22 -28v-50h-271v-126q0 -60 17 -82.5t55 -22.5h239q22 0 22 -28v-49h-272zM192 872q6 12 14.5 22.5t16.5 18.5q10 9 22 9q10 0 21 -11l117 -116l-27 -29q-8 -8 -16 -8
t-20 9z" />
    <glyph glyph-name="Eacute" unicode="&#xc9;" horiz-adv-x="574" 
d="M245 0q-75 0 -113.5 39t-38.5 135v526h396q20 0 20 -26q0 -12 -1.5 -26t-4.5 -26h-319v-236h249q22 0 22 -28v-50h-271v-126q0 -60 17 -82.5t55 -22.5h239q22 0 22 -28v-49h-272zM269 767q-12 -9 -20 -9t-16 8l-27 29l117 116q11 11 21 11q11 0 22 -9q8 -8 16.5 -18.5
t14.5 -22.5z" />
    <glyph glyph-name="Ecircumflex" unicode="&#xca;" horiz-adv-x="574" 
d="M245 0q-75 0 -113.5 39t-38.5 135v526h396q20 0 20 -26q0 -12 -1.5 -26t-4.5 -26h-319v-236h249q22 0 22 -28v-50h-271v-126q0 -60 17 -82.5t55 -22.5h239q22 0 22 -28v-49h-272zM451 795l-28 -30q-10 -10 -19 -10q-11 0 -25 14l-82 82l-96 -96q-48 18 -48 42q0 7 6 13
l114 110h27q13 0 19.5 -2.5t15.5 -11.5z" />
    <glyph glyph-name="Edieresis" unicode="&#xcb;" horiz-adv-x="574" 
d="M245 0q-75 0 -113.5 39t-38.5 135v526h396q20 0 20 -26q0 -12 -1.5 -26t-4.5 -26h-319v-236h249q22 0 22 -28v-50h-271v-126q0 -60 17 -82.5t55 -22.5h239q22 0 22 -28v-49h-272zM259 837q0 -23 -14 -37t-35 -14t-37 14.5t-16 40.5q0 23 14 37t36 14q20 0 36 -14.5
t16 -40.5zM437 837q0 -23 -14 -37t-35 -14t-37 14.5t-16 40.5q0 23 14 37t36 14q20 0 36 -14.5t16 -40.5z" />
    <glyph glyph-name="Igrave" unicode="&#xcc;" horiz-adv-x="293" 
d="M129 0q-16 0 -22 5t-6 17v674q14 5 30 7.5t33 2.5q28 0 28 -21v-685h-63zM13 872q6 12 14.5 22.5t16.5 18.5q10 9 22 9q10 0 21 -11l117 -116l-27 -29q-8 -8 -16 -8t-20 9z" />
    <glyph glyph-name="Iacute" unicode="&#xcd;" horiz-adv-x="293" 
d="M129 0q-16 0 -22 5t-6 17v674q14 5 30 7.5t33 2.5q28 0 28 -21v-685h-63zM152 767q-12 -9 -20 -9t-16 8l-27 29l117 116q11 11 21 11q11 0 22 -9q8 -8 16.5 -18.5t14.5 -22.5z" />
    <glyph glyph-name="Icircumflex" unicode="&#xce;" horiz-adv-x="293" 
d="M129 0q-16 0 -22 5t-6 17v674q14 5 30 7.5t33 2.5q28 0 28 -21v-685h-63zM300 795l-28 -30q-10 -10 -19 -10q-11 0 -25 14l-82 82l-96 -96q-48 18 -48 42q0 7 6 13l114 110h27q13 0 19.5 -2.5t15.5 -11.5z" />
    <glyph glyph-name="Idieresis" unicode="&#xcf;" horiz-adv-x="293" 
d="M129 0q-16 0 -22 5t-6 17v674q14 5 30 7.5t33 2.5q28 0 28 -21v-685h-63zM109 837q0 -23 -14 -37t-35 -14t-37 14.5t-16 40.5q0 23 14 37t36 14q20 0 36 -14.5t16 -40.5zM287 837q0 -23 -14 -37t-35 -14t-37 14.5t-16 40.5q0 23 14 37t36 14q20 0 36 -14.5t16 -40.5z" />
    <glyph glyph-name="Eth" unicode="&#xd0;" horiz-adv-x="722" 
d="M245 0q-40 0 -68.5 10t-47 33t-27.5 60t-9 92v126h-46q-21 0 -21 19q0 9 1 19.5t3 18.5h63v322h238q71 0 131.5 -24t105 -69.5t70 -110.5t25.5 -146t-25.5 -146t-70 -110.5t-105 -69.5t-131.5 -24h-86zM364 378q12 0 17 -6t5 -22v-29h-202v-139q0 -60 15.5 -82.5
t56.5 -22.5h64q51 0 96 17.5t79.5 51.5t54.5 85t20 119q0 67 -20 118t-54.5 85t-79.5 51.5t-96 17.5h-136v-244h180z" />
    <glyph glyph-name="Ntilde" unicode="&#xd1;" horiz-adv-x="718" 
d="M187 548v-548h-63q-28 0 -28 22v656q16 12 35 20t32 8q10 0 16 -3.5t11 -11.5l341 -539v548h63q28 0 28 -22v-656q-16 -12 -35 -20t-32 -8q-17 0 -27 15zM215 811q0 14 5 27q20 59 77 59q20 0 35 -6t33 -21q16 -13 25 -17.5t17 -4.5q13 0 20.5 10t12.5 41l45 -12
q22 -6 17 -29q-8 -35 -28.5 -56t-54.5 -21q-19 0 -34 6t-33 21q-17 14 -25.5 18t-16.5 4q-13 0 -20.5 -9.5t-12.5 -38.5q-28 0 -46 8q-16 7 -16 21z" />
    <glyph glyph-name="Ograve" unicode="&#xd2;" horiz-adv-x="773" 
d="M59 350q0 90 26 157.5t71 113t104.5 68.5t125.5 23q67 0 126.5 -23t104.5 -68.5t71 -113t26 -157.5t-26 -157.5t-71 -113t-104.5 -68.5t-126.5 -23q-66 0 -125.5 23t-104.5 68.5t-71 113t-26 157.5zM152 359q0 -71 19 -125.5t52 -91.5t76.5 -56t93.5 -19q43 0 84.5 16
t73 50t51 85.5t19.5 122.5t-19 125.5t-52 91.5t-77 56t-93 19q-44 0 -85 -16t-73 -50t-51 -85.5t-19 -122.5zM272 872q6 12 14.5 22.5t16.5 18.5q10 9 22 9q10 0 21 -11l117 -116l-27 -29q-8 -8 -16 -8t-20 9z" />
    <glyph glyph-name="Oacute" unicode="&#xd3;" horiz-adv-x="773" 
d="M59 350q0 90 26 157.5t71 113t104.5 68.5t125.5 23q67 0 126.5 -23t104.5 -68.5t71 -113t26 -157.5t-26 -157.5t-71 -113t-104.5 -68.5t-126.5 -23q-66 0 -125.5 23t-104.5 68.5t-71 113t-26 157.5zM152 359q0 -71 19 -125.5t52 -91.5t76.5 -56t93.5 -19q43 0 84.5 16
t73 50t51 85.5t19.5 122.5t-19 125.5t-52 91.5t-77 56t-93 19q-44 0 -85 -16t-73 -50t-51 -85.5t-19 -122.5zM364 767q-12 -9 -20 -9t-16 8l-27 29l117 116q11 11 21 11q11 0 22 -9q8 -8 16.5 -18.5t14.5 -22.5z" />
    <glyph glyph-name="Ocircumflex" unicode="&#xd4;" horiz-adv-x="773" 
d="M59 350q0 90 26 157.5t71 113t104.5 68.5t125.5 23q67 0 126.5 -23t104.5 -68.5t71 -113t26 -157.5t-26 -157.5t-71 -113t-104.5 -68.5t-126.5 -23q-66 0 -125.5 23t-104.5 68.5t-71 113t-26 157.5zM152 359q0 -71 19 -125.5t52 -91.5t76.5 -56t93.5 -19q43 0 84.5 16
t73 50t51 85.5t19.5 122.5t-19 125.5t-52 91.5t-77 56t-93 19q-44 0 -85 -16t-73 -50t-51 -85.5t-19 -122.5zM539 795l-28 -30q-10 -10 -19 -10q-11 0 -25 14l-82 82l-96 -96q-48 18 -48 42q0 7 6 13l114 110h27q13 0 19.5 -2.5t15.5 -11.5z" />
    <glyph glyph-name="Otilde" unicode="&#xd5;" horiz-adv-x="773" 
d="M59 350q0 90 26 157.5t71 113t104.5 68.5t125.5 23q67 0 126.5 -23t104.5 -68.5t71 -113t26 -157.5t-26 -157.5t-71 -113t-104.5 -68.5t-126.5 -23q-66 0 -125.5 23t-104.5 68.5t-71 113t-26 157.5zM152 359q0 -71 19 -125.5t52 -91.5t76.5 -56t93.5 -19q43 0 84.5 16
t73 50t51 85.5t19.5 122.5t-19 125.5t-52 91.5t-77 56t-93 19q-44 0 -85 -16t-73 -50t-51 -85.5t-19 -122.5zM242 811q0 14 5 27q20 59 77 59q20 0 35 -6t33 -21q16 -13 25 -17.5t17 -4.5q13 0 20.5 10t12.5 41l45 -12q22 -6 17 -29q-8 -35 -28.5 -56t-54.5 -21q-19 0 -34 6
t-33 21q-17 14 -25.5 18t-16.5 4q-13 0 -20.5 -9.5t-12.5 -38.5q-28 0 -46 8q-16 7 -16 21z" />
    <glyph glyph-name="Odieresis" unicode="&#xd6;" horiz-adv-x="773" 
d="M59 350q0 90 26 157.5t71 113t104.5 68.5t125.5 23q67 0 126.5 -23t104.5 -68.5t71 -113t26 -157.5t-26 -157.5t-71 -113t-104.5 -68.5t-126.5 -23q-66 0 -125.5 23t-104.5 68.5t-71 113t-26 157.5zM152 359q0 -71 19 -125.5t52 -91.5t76.5 -56t93.5 -19q43 0 84.5 16
t73 50t51 85.5t19.5 122.5t-19 125.5t-52 91.5t-77 56t-93 19q-44 0 -85 -16t-73 -50t-51 -85.5t-19 -122.5zM347 837q0 -23 -14 -37t-35 -14t-37 14.5t-16 40.5q0 23 14 37t36 14q20 0 36 -14.5t16 -40.5zM525 837q0 -23 -14 -37t-35 -14t-37 14.5t-16 40.5q0 23 14 37
t36 14q20 0 36 -14.5t16 -40.5z" />
    <glyph glyph-name="multiply" unicode="&#xd7;" horiz-adv-x="649" 
d="M323 273l-136 -138q-8 -8 -15 -8q-9 0 -20 11l-39 39l154 153l-154 154q9 18 24 36.5t29 18.5q8 0 18 -10l139 -142l139 142q10 10 18 10q14 0 29 -18.5t24 -36.5l-154 -154l154 -153l-39 -39q-11 -11 -20 -11q-7 0 -15 8z" />
    <glyph glyph-name="Oslash" unicode="&#xd8;" horiz-adv-x="773" 
d="M59 350q0 90 26 157.5t71 113t104.5 68.5t125.5 23q63 0 119 -20t101 -61l63 69h38q16 0 18.5 -7.5t-5.5 -16.5l-78 -85q34 -45 53 -105t19 -136q0 -90 -26 -157.5t-71 -113t-104.5 -68.5t-126.5 -23q-63 0 -119 20t-100 61l-63 -69h-38q-16 0 -18.5 7.5t5.5 16.5l77 85
q-33 45 -52 104.5t-19 136.5zM152 359q0 -55 11.5 -99.5t31.5 -79.5l349 383q-32 35 -74 52.5t-90 17.5q-44 0 -85 -16t-73 -50t-51 -85.5t-19 -122.5zM621 341q0 54 -12 98.5t-32 79.5l-349 -383q32 -34 74.5 -51.5t90.5 -17.5q43 0 84.5 16t73 50t51 85.5t19.5 122.5z" />
    <glyph glyph-name="Ugrave" unicode="&#xd9;" horiz-adv-x="719" 
d="M90 696q14 5 30.5 7.5t33.5 2.5q27 0 27 -21v-398q0 -50 12.5 -90.5t35.5 -69.5t56 -45t74 -16t74 16t56 45t35.5 69.5t12.5 90.5v413h63q28 0 28 -23v-383q0 -70 -18.5 -126.5t-53 -96.5t-84.5 -61.5t-113 -21.5t-113 21.5t-84.5 61.5t-53 96.5t-18.5 126.5v402z
M245 872q6 12 14.5 22.5t16.5 18.5q10 9 22 9q10 0 21 -11l117 -116l-27 -29q-8 -8 -16 -8t-20 9z" />
    <glyph glyph-name="Uacute" unicode="&#xda;" horiz-adv-x="719" 
d="M90 696q14 5 30.5 7.5t33.5 2.5q27 0 27 -21v-398q0 -50 12.5 -90.5t35.5 -69.5t56 -45t74 -16t74 16t56 45t35.5 69.5t12.5 90.5v413h63q28 0 28 -23v-383q0 -70 -18.5 -126.5t-53 -96.5t-84.5 -61.5t-113 -21.5t-113 21.5t-84.5 61.5t-53 96.5t-18.5 126.5v402z
M338 767q-12 -9 -20 -9t-16 8l-27 29l117 116q11 11 21 11q11 0 22 -9q8 -8 16.5 -18.5t14.5 -22.5z" />
    <glyph glyph-name="Ucircumflex" unicode="&#xdb;" horiz-adv-x="719" 
d="M90 696q14 5 30.5 7.5t33.5 2.5q27 0 27 -21v-398q0 -50 12.5 -90.5t35.5 -69.5t56 -45t74 -16t74 16t56 45t35.5 69.5t12.5 90.5v413h63q28 0 28 -23v-383q0 -70 -18.5 -126.5t-53 -96.5t-84.5 -61.5t-113 -21.5t-113 21.5t-84.5 61.5t-53 96.5t-18.5 126.5v402z
M511 795l-28 -30q-10 -10 -19 -10q-11 0 -25 14l-82 82l-96 -96q-48 18 -48 42q0 7 6 13l114 110h27q13 0 19.5 -2.5t15.5 -11.5z" />
    <glyph glyph-name="Udieresis" unicode="&#xdc;" horiz-adv-x="719" 
d="M90 696q14 5 30.5 7.5t33.5 2.5q27 0 27 -21v-398q0 -50 12.5 -90.5t35.5 -69.5t56 -45t74 -16t74 16t56 45t35.5 69.5t12.5 90.5v413h63q28 0 28 -23v-383q0 -70 -18.5 -126.5t-53 -96.5t-84.5 -61.5t-113 -21.5t-113 21.5t-84.5 61.5t-53 96.5t-18.5 126.5v402z
M320 837q0 -23 -14 -37t-35 -14t-37 14.5t-16 40.5q0 23 14 37t36 14q20 0 36 -14.5t16 -40.5zM498 837q0 -23 -14 -37t-35 -14t-37 14.5t-16 40.5q0 23 14 37t36 14q20 0 36 -14.5t16 -40.5z" />
    <glyph glyph-name="Yacute" unicode="&#xdd;" horiz-adv-x="661" 
d="M282 235l-244 430q20 20 37.5 30t30.5 10q15 0 24 -16l200 -366q60 82 114 178.5t89 198.5h65q16 0 22.5 -8t1.5 -19q-43 -115 -107 -225.5t-142 -208.5v-239h-63q-16 0 -22 5t-6 17v213zM318 767q-12 -9 -20 -9t-16 8l-27 29l117 116q11 11 21 11q11 0 22 -9
q8 -8 16.5 -18.5t14.5 -22.5z" />
    <glyph glyph-name="Thorn" unicode="&#xde;" horiz-adv-x="638" 
d="M123 0q-28 0 -28 22v674q14 5 30.5 7.5t33.5 2.5q27 0 27 -21v-85h130q62 0 112.5 -17.5t86 -50.5t55 -80.5t19.5 -107.5t-20.5 -106t-56 -77.5t-84 -48t-104.5 -16.5q-32 0 -70.5 4.5t-67.5 14.5v-115h-63zM186 522v-334q26 -8 58 -11t66 -3q41 0 75.5 11t59 33
t38.5 54.5t14 75.5q0 86 -51 130t-135 44h-125z" />
    <glyph glyph-name="germandbls" unicode="&#xdf;" horiz-adv-x="637" 
d="M384 -12q-33 0 -60.5 6t-47 16t-30 21.5t-10.5 22.5t3.5 22.5t8.5 19.5q26 -15 57 -22t61 -7q62 0 101 32t39 84q0 28 -14 53t-39.5 45t-62 33t-80.5 17q-12 24 -12 44q0 14 5.5 20.5t16.5 9.5q52 14 80.5 44.5t28.5 72.5q0 50 -34.5 80.5t-87.5 30.5q-59 0 -95 -40
t-36 -113v-480h-63q-28 0 -28 22v443q0 116 58.5 181.5t162.5 65.5q48 0 87.5 -15t67 -40t43 -59t15.5 -71q0 -56 -30.5 -95.5t-83.5 -58.5q42 -9 77 -28t60.5 -45t39.5 -59.5t14 -71.5q0 -39 -15 -72t-42.5 -57.5t-66.5 -38t-88 -13.5z" />
    <glyph glyph-name="agrave" unicode="&#xe0;" horiz-adv-x="593" 
d="M252 62q47 0 90 24.5t69 72.5v73q-25 11 -64 16.5t-71 5.5q-66 0 -101 -25.5t-35 -70.5q0 -48 32.5 -72t79.5 -24zM556 63q5 -15 5 -31q0 -14 -17 -26.5t-48 -12.5q-32 0 -54.5 23t-27.5 64q-26 -42 -73 -67t-107 -25q-41 0 -74 12t-57 34t-37 53t-13 68q0 83 57.5 128.5
t154.5 45.5q38 0 77.5 -8.5t68.5 -22.5v44q0 65 -41 97t-117 32q-38 0 -74.5 -7.5t-68.5 -24.5q-5 6 -8.5 17t-3.5 21t13.5 22.5t37 22.5t55.5 17t70 7q104 0 164 -52t60 -156v-220q0 -32 10 -43.5t28 -11.5h20zM188 698q6 12 14.5 22.5t16.5 18.5q10 9 22 9q10 0 21 -11
l117 -116l-27 -29q-8 -8 -16 -8t-20 9z" />
    <glyph glyph-name="aacute" unicode="&#xe1;" horiz-adv-x="593" 
d="M252 62q47 0 90 24.5t69 72.5v73q-25 11 -64 16.5t-71 5.5q-66 0 -101 -25.5t-35 -70.5q0 -48 32.5 -72t79.5 -24zM556 63q5 -15 5 -31q0 -14 -17 -26.5t-48 -12.5q-32 0 -54.5 23t-27.5 64q-26 -42 -73 -67t-107 -25q-41 0 -74 12t-57 34t-37 53t-13 68q0 83 57.5 128.5
t154.5 45.5q38 0 77.5 -8.5t68.5 -22.5v44q0 65 -41 97t-117 32q-38 0 -74.5 -7.5t-68.5 -24.5q-5 6 -8.5 17t-3.5 21t13.5 22.5t37 22.5t55.5 17t70 7q104 0 164 -52t60 -156v-220q0 -32 10 -43.5t28 -11.5h20zM261 593q-12 -9 -20 -9t-16 8l-27 29l117 116q11 11 21 11
q11 0 22 -9q8 -8 16.5 -18.5t14.5 -22.5z" />
    <glyph glyph-name="acircumflex" unicode="&#xe2;" horiz-adv-x="593" 
d="M252 62q47 0 90 24.5t69 72.5v73q-25 11 -64 16.5t-71 5.5q-66 0 -101 -25.5t-35 -70.5q0 -48 32.5 -72t79.5 -24zM556 63q5 -15 5 -31q0 -14 -17 -26.5t-48 -12.5q-32 0 -54.5 23t-27.5 64q-26 -42 -73 -67t-107 -25q-41 0 -74 12t-57 34t-37 53t-13 68q0 83 57.5 128.5
t154.5 45.5q38 0 77.5 -8.5t68.5 -22.5v44q0 65 -41 97t-117 32q-38 0 -74.5 -7.5t-68.5 -24.5q-5 6 -8.5 17t-3.5 21t13.5 22.5t37 22.5t55.5 17t70 7q104 0 164 -52t60 -156v-220q0 -32 10 -43.5t28 -11.5h20zM446 621l-28 -30q-10 -10 -19 -10q-11 0 -25 14l-82 82
l-96 -96q-48 18 -48 42q0 7 6 13l114 110h27q13 0 19.5 -2.5t15.5 -11.5z" />
    <glyph glyph-name="atilde" unicode="&#xe3;" horiz-adv-x="593" 
d="M252 62q47 0 90 24.5t69 72.5v73q-25 11 -64 16.5t-71 5.5q-66 0 -101 -25.5t-35 -70.5q0 -48 32.5 -72t79.5 -24zM556 63q5 -15 5 -31q0 -14 -17 -26.5t-48 -12.5q-32 0 -54.5 23t-27.5 64q-26 -42 -73 -67t-107 -25q-41 0 -74 12t-57 34t-37 53t-13 68q0 83 57.5 128.5
t154.5 45.5q38 0 77.5 -8.5t68.5 -22.5v44q0 65 -41 97t-117 32q-38 0 -74.5 -7.5t-68.5 -24.5q-5 6 -8.5 17t-3.5 21t13.5 22.5t37 22.5t55.5 17t70 7q104 0 164 -52t60 -156v-220q0 -32 10 -43.5t28 -11.5h20zM148 636q0 14 5 27q20 59 77 59q20 0 35 -6t33 -21
q16 -13 25 -17.5t17 -4.5q13 0 20.5 10t12.5 41l45 -12q22 -6 17 -29q-8 -35 -28.5 -56t-54.5 -21q-19 0 -34 6t-33 21q-17 14 -25.5 18t-16.5 4q-13 0 -20.5 -9.5t-12.5 -38.5q-28 0 -46 8q-16 7 -16 21z" />
    <glyph glyph-name="adieresis" unicode="&#xe4;" horiz-adv-x="593" 
d="M252 62q47 0 90 24.5t69 72.5v73q-25 11 -64 16.5t-71 5.5q-66 0 -101 -25.5t-35 -70.5q0 -48 32.5 -72t79.5 -24zM556 63q5 -15 5 -31q0 -14 -17 -26.5t-48 -12.5q-32 0 -54.5 23t-27.5 64q-26 -42 -73 -67t-107 -25q-41 0 -74 12t-57 34t-37 53t-13 68q0 83 57.5 128.5
t154.5 45.5q38 0 77.5 -8.5t68.5 -22.5v44q0 65 -41 97t-117 32q-38 0 -74.5 -7.5t-68.5 -24.5q-5 6 -8.5 17t-3.5 21t13.5 22.5t37 22.5t55.5 17t70 7q104 0 164 -52t60 -156v-220q0 -32 10 -43.5t28 -11.5h20zM254 663q0 -23 -14 -37t-35 -14t-37 14.5t-16 40.5
q0 23 14 37t36 14q20 0 36 -14.5t16 -40.5zM432 663q0 -23 -14 -37t-35 -14t-37 14.5t-16 40.5q0 23 14 37t36 14q20 0 36 -14.5t16 -40.5z" />
    <glyph glyph-name="aring" unicode="&#xe5;" horiz-adv-x="593" 
d="M252 62q47 0 90 24.5t69 72.5v73q-25 11 -64 16.5t-71 5.5q-66 0 -101 -25.5t-35 -70.5q0 -48 32.5 -72t79.5 -24zM556 63q5 -15 5 -31q0 -14 -17 -26.5t-48 -12.5q-32 0 -54.5 23t-27.5 64q-26 -42 -73 -67t-107 -25q-41 0 -74 12t-57 34t-37 53t-13 68q0 83 57.5 128.5
t154.5 45.5q38 0 77.5 -8.5t68.5 -22.5v44q0 65 -41 97t-117 32q-38 0 -74.5 -7.5t-68.5 -24.5q-5 6 -8.5 17t-3.5 21t13.5 22.5t37 22.5t55.5 17t70 7q104 0 164 -52t60 -156v-220q0 -32 10 -43.5t28 -11.5h20zM286 754q41 0 67 -25.5t26 -63.5t-26 -63.5t-67 -25.5
q-40 0 -66.5 25.5t-26.5 63.5t26.5 63.5t66.5 25.5zM289 621q17 0 28.5 11.5t11.5 30.5q0 21 -12.5 33.5t-32.5 12.5q-17 0 -29 -11.5t-12 -30.5q0 -21 13 -33.5t33 -12.5z" />
    <glyph glyph-name="ae" unicode="&#xe6;" horiz-adv-x="932" 
d="M821 93q5 -6 8.5 -17t3.5 -21t-11.5 -22t-32 -22t-49.5 -16.5t-65 -6.5q-70 0 -127 30.5t-92 84.5q-32 -53 -84.5 -84t-122.5 -31q-48 0 -84.5 12.5t-61 35t-37.5 53t-13 66.5q0 82 57.5 128t154.5 46q38 0 77.5 -8.5t68.5 -23.5v45q0 65 -41 97t-117 32q-82 0 -143 -32
q-5 6 -8.5 17t-3.5 21t13.5 22.5t37 22.5t55.5 17t70 7q70 0 122 -27t74 -78q30 48 83.5 76.5t118.5 28.5q47 0 86 -15t67 -41t43.5 -62t15.5 -78q0 -57 -19.5 -88t-64.5 -31h-301q4 -41 20.5 -72.5t41.5 -53t58 -32.5t70 -11q71 0 132 31zM252 62q23 0 46.5 6.5t45 20
t39 34.5t29.5 51v27.5t-1 29.5q-25 11 -64 17t-71 6q-66 0 -101 -26t-35 -71q0 -47 32.5 -71t79.5 -24zM667 471q-33 0 -62 -11.5t-51 -33.5t-36.5 -52.5t-18.5 -69.5h291q8 17 8 42q0 57 -34.5 91t-96.5 34z" />
    <glyph glyph-name="ccedilla" unicode="&#xe7;" horiz-adv-x="552" 
d="M263 -90q-12 6 -12 12q0 2 2 6l34 65q-47 9 -89.5 32t-74.5 59.5t-51 86.5t-19 112q0 61 19.5 110t53.5 83t81 52t101 18q74 0 126 -30.5t75 -76.5q5 -10 5 -18q0 -16 -16 -25q-11 -7 -27.5 -11t-31.5 -6q-14 42 -47 67t-88 25q-34 0 -64 -13t-52 -37t-34.5 -58.5
t-12.5 -77.5q0 -55 18 -97t48 -70t68.5 -42t79.5 -14q71 0 132 31q5 -8 8.5 -18.5t3.5 -19.5q0 -20 -38 -41t-100 -25l-26 -48q42 -7 65.5 -29t23.5 -57q0 -44 -32 -68.5t-86 -24.5q-17 0 -36 2.5t-34 7.5v35q0 18 15 18q8 0 20.5 -3t25.5 -3q24 0 38.5 9.5t14.5 28.5
q0 47 -87 53z" />
    <glyph glyph-name="egrave" unicode="&#xe8;" horiz-adv-x="575" 
d="M332 63q35 0 68.5 7t64.5 24q5 -7 8.5 -18t3.5 -21t-11.5 -22t-32 -22t-50 -16.5t-65.5 -6.5q-57 0 -105.5 20.5t-84 57.5t-55.5 88t-20 113q0 65 21 117t57 88t83.5 55t100.5 19q47 0 86 -14.5t67 -41t43.5 -62.5t15.5 -78q0 -22 -4 -42.5t-11 -35.5q-11 -24 -26 -32.5
t-43 -8.5h-300q4 -41 20.5 -72.5t41.5 -52.5t57.5 -32t69.5 -11zM311 471q-33 0 -62 -11.5t-51.5 -33t-36.5 -52t-18 -69.5h291q8 18 8 41q0 57 -34.5 91t-96.5 34zM197 698q6 12 14.5 22.5t16.5 18.5q10 9 22 9q10 0 21 -11l117 -116l-27 -29q-8 -8 -16 -8t-20 9z" />
    <glyph glyph-name="eacute" unicode="&#xe9;" horiz-adv-x="575" 
d="M332 63q35 0 68.5 7t64.5 24q5 -7 8.5 -18t3.5 -21t-11.5 -22t-32 -22t-50 -16.5t-65.5 -6.5q-57 0 -105.5 20.5t-84 57.5t-55.5 88t-20 113q0 65 21 117t57 88t83.5 55t100.5 19q47 0 86 -14.5t67 -41t43.5 -62.5t15.5 -78q0 -22 -4 -42.5t-11 -35.5q-11 -24 -26 -32.5
t-43 -8.5h-300q4 -41 20.5 -72.5t41.5 -52.5t57.5 -32t69.5 -11zM311 471q-33 0 -62 -11.5t-51.5 -33t-36.5 -52t-18 -69.5h291q8 18 8 41q0 57 -34.5 91t-96.5 34zM267 593q-12 -9 -20 -9t-16 8l-27 29l117 116q11 11 21 11q11 0 22 -9q8 -8 16.5 -18.5t14.5 -22.5z" />
    <glyph glyph-name="ecircumflex" unicode="&#xea;" horiz-adv-x="575" 
d="M332 63q35 0 68.5 7t64.5 24q5 -7 8.5 -18t3.5 -21t-11.5 -22t-32 -22t-50 -16.5t-65.5 -6.5q-57 0 -105.5 20.5t-84 57.5t-55.5 88t-20 113q0 65 21 117t57 88t83.5 55t100.5 19q47 0 86 -14.5t67 -41t43.5 -62.5t15.5 -78q0 -22 -4 -42.5t-11 -35.5q-11 -24 -26 -32.5
t-43 -8.5h-300q4 -41 20.5 -72.5t41.5 -52.5t57.5 -32t69.5 -11zM311 471q-33 0 -62 -11.5t-51.5 -33t-36.5 -52t-18 -69.5h291q8 18 8 41q0 57 -34.5 91t-96.5 34zM454 621l-28 -30q-10 -10 -19 -10q-11 0 -25 14l-82 82l-96 -96q-48 18 -48 42q0 7 6 13l114 110h27
q13 0 19.5 -2.5t15.5 -11.5z" />
    <glyph glyph-name="edieresis" unicode="&#xeb;" horiz-adv-x="575" 
d="M332 63q35 0 68.5 7t64.5 24q5 -7 8.5 -18t3.5 -21t-11.5 -22t-32 -22t-50 -16.5t-65.5 -6.5q-57 0 -105.5 20.5t-84 57.5t-55.5 88t-20 113q0 65 21 117t57 88t83.5 55t100.5 19q47 0 86 -14.5t67 -41t43.5 -62.5t15.5 -78q0 -22 -4 -42.5t-11 -35.5q-11 -24 -26 -32.5
t-43 -8.5h-300q4 -41 20.5 -72.5t41.5 -52.5t57.5 -32t69.5 -11zM311 471q-33 0 -62 -11.5t-51.5 -33t-36.5 -52t-18 -69.5h291q8 18 8 41q0 57 -34.5 91t-96.5 34zM264 663q0 -23 -14 -37t-35 -14t-37 14.5t-16 40.5q0 23 14 37t36 14q20 0 36 -14.5t16 -40.5zM442 663
q0 -23 -14 -37t-35 -14t-37 14.5t-16 40.5q0 23 14 37t36 14q20 0 36 -14.5t16 -40.5z" />
    <glyph glyph-name="igrave" unicode="&#xec;" horiz-adv-x="270" 
d="M85 531q30 9 60 9q27 0 27 -21v-403q0 -29 8.5 -41t26.5 -12h22q5 -11 5 -31q0 -14 -17 -26.5t-46 -12.5q-18 0 -33.5 5.5t-27 19t-18.5 36t-7 55.5v422zM2 698q6 12 14.5 22.5t16.5 18.5q10 9 22 9q10 0 21 -11l117 -116l-27 -29q-8 -8 -16 -8t-20 9z" />
    <glyph glyph-name="iacute" unicode="&#xed;" horiz-adv-x="270" 
d="M85 531q30 9 60 9q27 0 27 -21v-403q0 -29 8.5 -41t26.5 -12h22q5 -11 5 -31q0 -14 -17 -26.5t-46 -12.5q-18 0 -33.5 5.5t-27 19t-18.5 36t-7 55.5v422zM121 593q-12 -9 -20 -9t-16 8l-27 29l117 116q11 11 21 11q11 0 22 -9q8 -8 16.5 -18.5t14.5 -22.5z" />
    <glyph glyph-name="icircumflex" unicode="&#xee;" horiz-adv-x="270" 
d="M85 531q30 9 60 9q27 0 27 -21v-403q0 -29 8.5 -41t26.5 -12h22q5 -11 5 -31q0 -14 -17 -26.5t-46 -12.5q-18 0 -33.5 5.5t-27 19t-18.5 36t-7 55.5v422zM282 621l-28 -30q-10 -10 -19 -10q-11 0 -25 14l-82 82l-96 -96q-48 18 -48 42q0 7 6 13l114 110h27
q13 0 19.5 -2.5t15.5 -11.5z" />
    <glyph glyph-name="idieresis" unicode="&#xef;" horiz-adv-x="270" 
d="M85 531q30 9 60 9q27 0 27 -21v-403q0 -29 8.5 -41t26.5 -12h22q5 -11 5 -31q0 -14 -17 -26.5t-46 -12.5q-18 0 -33.5 5.5t-27 19t-18.5 36t-7 55.5v422zM91 663q0 -23 -14 -37t-35 -14t-37 14.5t-16 40.5q0 23 14 37t36 14q20 0 36 -14.5t16 -40.5zM269 663
q0 -23 -14 -37t-35 -14t-37 14.5t-16 40.5q0 23 14 37t36 14q20 0 36 -14.5t16 -40.5z" />
    <glyph glyph-name="eth" unicode="&#xf0;" horiz-adv-x="601" 
d="M386 622q-25 24 -55 34.5t-63 10.5q-30 0 -63 -7t-65 -23q-5 6 -8.5 17t-3.5 21t13 22t34 22t49 16.5t58 6.5q52 0 98 -17t81 -58l51 31q19 13 33 -11l14 -27l-66 -40q25 -46 39 -113t14 -159q0 -177 -69 -268.5t-200 -91.5q-49 0 -91 16.5t-72.5 46.5t-48 71t-17.5 90
q0 63 21 112.5t56 84t79.5 52.5t91.5 18q45 0 87 -14.5t74 -46.5q-3 52 -12 90.5t-25 67.5l-80 -49q-18 -11 -27 6q-5 8 -9 17.5t-6 17.5zM279 62q81 0 130 66.5t49 203.5v9q-30 34 -68.5 48.5t-80.5 14.5q-36 0 -67.5 -12t-55 -36t-37 -59.5t-13.5 -81.5q0 -34 10.5 -62
t29.5 -48.5t45.5 -31.5t57.5 -11z" />
    <glyph glyph-name="ntilde" unicode="&#xf1;" horiz-adv-x="641" 
d="M113 0q-16 0 -22 5t-6 17v509q30 9 60 9q27 0 27 -21v-43q34 31 82 50.5t100 19.5q93 0 141.5 -61t48.5 -170v-199q0 -29 8.5 -41t26.5 -12h22q5 -11 5 -31q0 -14 -17 -26.5t-46 -12.5q-18 0 -33.5 5.5t-27 19t-18.5 36t-7 55.5v212q0 74 -30.5 112t-95.5 38
q-41 0 -84 -16.5t-75 -47.5v-407h-59zM170 636q0 14 5 27q20 59 77 59q20 0 35 -6t33 -21q16 -13 25 -17.5t17 -4.5q13 0 20.5 10t12.5 41l45 -12q22 -6 17 -29q-8 -35 -28.5 -56t-54.5 -21q-19 0 -34 6t-33 21q-17 14 -25.5 18t-16.5 4q-13 0 -20.5 -9.5t-12.5 -38.5
q-28 0 -46 8q-16 7 -16 21z" />
    <glyph glyph-name="ograve" unicode="&#xf2;" horiz-adv-x="628" 
d="M314 546q53 0 100.5 -18.5t83 -54.5t56.5 -88t21 -118t-21 -118t-56.5 -88t-83 -54.5t-100.5 -18.5t-100.5 18.5t-83 54.5t-56.5 88t-21 118t21 118t56.5 88t83 54.5t100.5 18.5zM319 63q33 0 63 12t53.5 36t37 61.5t13.5 88.5q0 52 -14.5 91t-39.5 65.5t-57 40t-66 13.5
q-33 0 -63 -12t-53.5 -36t-37 -61.5t-13.5 -88.5q0 -52 14.5 -91t39.5 -65.5t56.5 -40t66.5 -13.5zM198 698q6 12 14.5 22.5t16.5 18.5q10 9 22 9q10 0 21 -11l117 -116l-27 -29q-8 -8 -16 -8t-20 9z" />
    <glyph glyph-name="oacute" unicode="&#xf3;" horiz-adv-x="628" 
d="M314 546q53 0 100.5 -18.5t83 -54.5t56.5 -88t21 -118t-21 -118t-56.5 -88t-83 -54.5t-100.5 -18.5t-100.5 18.5t-83 54.5t-56.5 88t-21 118t21 118t56.5 88t83 54.5t100.5 18.5zM319 63q33 0 63 12t53.5 36t37 61.5t13.5 88.5q0 52 -14.5 91t-39.5 65.5t-57 40t-66 13.5
q-33 0 -63 -12t-53.5 -36t-37 -61.5t-13.5 -88.5q0 -52 14.5 -91t39.5 -65.5t56.5 -40t66.5 -13.5zM291 593q-12 -9 -20 -9t-16 8l-27 29l117 116q11 11 21 11q11 0 22 -9q8 -8 16.5 -18.5t14.5 -22.5z" />
    <glyph glyph-name="ocircumflex" unicode="&#xf4;" horiz-adv-x="628" 
d="M314 546q53 0 100.5 -18.5t83 -54.5t56.5 -88t21 -118t-21 -118t-56.5 -88t-83 -54.5t-100.5 -18.5t-100.5 18.5t-83 54.5t-56.5 88t-21 118t21 118t56.5 88t83 54.5t100.5 18.5zM319 63q33 0 63 12t53.5 36t37 61.5t13.5 88.5q0 52 -14.5 91t-39.5 65.5t-57 40t-66 13.5
q-33 0 -63 -12t-53.5 -36t-37 -61.5t-13.5 -88.5q0 -52 14.5 -91t39.5 -65.5t56.5 -40t66.5 -13.5zM467 621l-28 -30q-10 -10 -19 -10q-11 0 -25 14l-82 82l-96 -96q-48 18 -48 42q0 7 6 13l114 110h27q13 0 19.5 -2.5t15.5 -11.5z" />
    <glyph glyph-name="otilde" unicode="&#xf5;" horiz-adv-x="628" 
d="M314 546q53 0 100.5 -18.5t83 -54.5t56.5 -88t21 -118t-21 -118t-56.5 -88t-83 -54.5t-100.5 -18.5t-100.5 18.5t-83 54.5t-56.5 88t-21 118t21 118t56.5 88t83 54.5t100.5 18.5zM319 63q33 0 63 12t53.5 36t37 61.5t13.5 88.5q0 52 -14.5 91t-39.5 65.5t-57 40t-66 13.5
q-33 0 -63 -12t-53.5 -36t-37 -61.5t-13.5 -88.5q0 -52 14.5 -91t39.5 -65.5t56.5 -40t66.5 -13.5zM169 636q0 14 5 27q20 59 77 59q20 0 35 -6t33 -21q16 -13 25 -17.5t17 -4.5q13 0 20.5 10t12.5 41l45 -12q22 -6 17 -29q-8 -35 -28.5 -56t-54.5 -21q-19 0 -34 6t-33 21
q-17 14 -25.5 18t-16.5 4q-13 0 -20.5 -9.5t-12.5 -38.5q-28 0 -46 8q-16 7 -16 21z" />
    <glyph glyph-name="odieresis" unicode="&#xf6;" horiz-adv-x="628" 
d="M314 546q53 0 100.5 -18.5t83 -54.5t56.5 -88t21 -118t-21 -118t-56.5 -88t-83 -54.5t-100.5 -18.5t-100.5 18.5t-83 54.5t-56.5 88t-21 118t21 118t56.5 88t83 54.5t100.5 18.5zM319 63q33 0 63 12t53.5 36t37 61.5t13.5 88.5q0 52 -14.5 91t-39.5 65.5t-57 40t-66 13.5
q-33 0 -63 -12t-53.5 -36t-37 -61.5t-13.5 -88.5q0 -52 14.5 -91t39.5 -65.5t56.5 -40t66.5 -13.5zM275 663q0 -23 -14 -37t-35 -14t-37 14.5t-16 40.5q0 23 14 37t36 14q20 0 36 -14.5t16 -40.5zM453 663q0 -23 -14 -37t-35 -14t-37 14.5t-16 40.5q0 23 14 37t36 14
q20 0 36 -14.5t16 -40.5z" />
    <glyph glyph-name="divide" unicode="&#xf7;" horiz-adv-x="649" 
d="M105 295q-20 0 -20 25q0 11 1.5 24.5t4.5 23.5h449q12 0 17.5 -6t5.5 -22v-45h-458zM326 463q-23 0 -40.5 16t-17.5 45q0 26 15.5 41t39.5 15q23 0 40.5 -16t17.5 -45q0 -26 -15.5 -41t-39.5 -15zM323 200q23 0 40.5 -16t17.5 -45q0 -26 -15.5 -41t-39.5 -15
q-23 0 -40.5 16t-17.5 45q0 26 15.5 41t39.5 15z" />
    <glyph glyph-name="oslash" unicode="&#xf8;" horiz-adv-x="628" 
d="M314 546q47 0 89.5 -14.5t77.5 -43.5l42 46h32q17 0 21 -6.5t-6 -17.5l-54 -59q28 -35 43.5 -81t15.5 -103q0 -66 -21 -118t-56.5 -88t-83 -54.5t-100.5 -18.5q-48 0 -90.5 14.5t-76.5 43.5l-42 -46h-32q-17 0 -21 6.5t6 17.5l53 58q-27 35 -42.5 81.5t-15.5 103.5
q0 66 21 118t56.5 88t83 54.5t100.5 18.5zM142 273q0 -38 8 -69t22 -55l252 276q-24 23 -53.5 34.5t-61.5 11.5q-33 0 -63 -12t-53.5 -36t-37 -61.5t-13.5 -88.5zM319 63q33 0 63 12t53.5 36t37 61.5t13.5 88.5q0 38 -8 68.5t-22 55.5l-253 -277q24 -23 54 -34t62 -11z" />
    <glyph glyph-name="ugrave" unicode="&#xf9;" horiz-adv-x="614" 
d="M537 225q0 -56 -17 -99.5t-47 -74.5t-72.5 -47t-93.5 -16t-93.5 16t-73 47t-47.5 74.5t-17 99.5v306q30 9 60 9q27 0 27 -21v-300q0 -37 11.5 -66t31 -49.5t45.5 -31t56 -10.5t56 10.5t45.5 31t30.5 49.5t11 66v315h59q28 0 28 -23v-286zM191 698q6 12 14.5 22.5
t16.5 18.5q10 9 22 9q10 0 21 -11l117 -116l-27 -29q-8 -8 -16 -8t-20 9z" />
    <glyph glyph-name="uacute" unicode="&#xfa;" horiz-adv-x="614" 
d="M537 225q0 -56 -17 -99.5t-47 -74.5t-72.5 -47t-93.5 -16t-93.5 16t-73 47t-47.5 74.5t-17 99.5v306q30 9 60 9q27 0 27 -21v-300q0 -37 11.5 -66t31 -49.5t45.5 -31t56 -10.5t56 10.5t45.5 31t30.5 49.5t11 66v315h59q28 0 28 -23v-286zM284 593q-12 -9 -20 -9t-16 8
l-27 29l117 116q11 11 21 11q11 0 22 -9q8 -8 16.5 -18.5t14.5 -22.5z" />
    <glyph glyph-name="ucircumflex" unicode="&#xfb;" horiz-adv-x="614" 
d="M537 225q0 -56 -17 -99.5t-47 -74.5t-72.5 -47t-93.5 -16t-93.5 16t-73 47t-47.5 74.5t-17 99.5v306q30 9 60 9q27 0 27 -21v-300q0 -37 11.5 -66t31 -49.5t45.5 -31t56 -10.5t56 10.5t45.5 31t30.5 49.5t11 66v315h59q28 0 28 -23v-286zM459 621l-28 -30
q-10 -10 -19 -10q-11 0 -25 14l-82 82l-96 -96q-48 18 -48 42q0 7 6 13l114 110h27q13 0 19.5 -2.5t15.5 -11.5z" />
    <glyph glyph-name="udieresis" unicode="&#xfc;" horiz-adv-x="614" 
d="M537 225q0 -56 -17 -99.5t-47 -74.5t-72.5 -47t-93.5 -16t-93.5 16t-73 47t-47.5 74.5t-17 99.5v306q30 9 60 9q27 0 27 -21v-300q0 -37 11.5 -66t31 -49.5t45.5 -31t56 -10.5t56 10.5t45.5 31t30.5 49.5t11 66v315h59q28 0 28 -23v-286zM268 663q0 -23 -14 -37t-35 -14
t-37 14.5t-16 40.5q0 23 14 37t36 14q20 0 36 -14.5t16 -40.5zM446 663q0 -23 -14 -37t-35 -14t-37 14.5t-16 40.5q0 23 14 37t36 14q20 0 36 -14.5t16 -40.5z" />
    <glyph glyph-name="yacute" unicode="&#xfd;" horiz-adv-x="627" 
d="M83 532q32 8 60 8q27 0 27 -21v-306q0 -74 30.5 -112t95.5 -38q41 0 84 16.5t75 47.5v408h59q28 0 28 -22v-510q0 -50 -16.5 -95.5t-50 -80t-84 -55t-117.5 -20.5q-86 0 -135.5 38t-49.5 97q0 36 20 68t64 58q-45 26 -67.5 78.5t-22.5 127.5v313zM455 58
q-34 -31 -82 -50.5t-100 -19.5q-12 0 -22.5 1t-21.5 3q-29 -20 -41 -44t-12 -51q0 -32 26 -52t74 -20q39 0 72 11.5t57 33t37 53t13 71.5v64zM291 593q-12 -9 -20 -9t-16 8l-27 29l117 116q11 11 21 11q11 0 22 -9q8 -8 16.5 -18.5t14.5 -22.5z" />
    <glyph glyph-name="thorn" unicode="&#xfe;" horiz-adv-x="644" 
d="M172 -193h-59q-28 0 -28 22v899q32 8 60 8q27 0 27 -21v-272q26 47 75 75t112 28q48 0 90 -17.5t72.5 -51t48 -81.5t17.5 -108q0 -66 -21 -121t-57 -95t-84 -62t-103 -22q-91 0 -150 53v-234zM340 472q-48 0 -94.5 -34t-73.5 -105v-216q29 -28 64 -41t73 -13
q41 0 75.5 17t60 46.5t40 70.5t14.5 89q0 88 -43 137t-116 49z" />
    <glyph glyph-name="ydieresis" unicode="&#xff;" horiz-adv-x="627" 
d="M83 532q32 8 60 8q27 0 27 -21v-306q0 -74 30.5 -112t95.5 -38q41 0 84 16.5t75 47.5v408h59q28 0 28 -22v-510q0 -50 -16.5 -95.5t-50 -80t-84 -55t-117.5 -20.5q-86 0 -135.5 38t-49.5 97q0 36 20 68t64 58q-45 26 -67.5 78.5t-22.5 127.5v313zM455 58
q-34 -31 -82 -50.5t-100 -19.5q-12 0 -22.5 1t-21.5 3q-29 -20 -41 -44t-12 -51q0 -32 26 -52t74 -20q39 0 72 11.5t57 33t37 53t13 71.5v64zM273 663q0 -23 -14 -37t-35 -14t-37 14.5t-16 40.5q0 23 14 37t36 14q20 0 36 -14.5t16 -40.5zM451 663q0 -23 -14 -37t-35 -14
t-37 14.5t-16 40.5q0 23 14 37t36 14q20 0 36 -14.5t16 -40.5z" />
    <glyph glyph-name="dotlessi" unicode="&#x131;" horiz-adv-x="270" 
d="M85 531q30 9 60 9q27 0 27 -21v-403q0 -29 8.5 -41t26.5 -12h22q5 -11 5 -31q0 -14 -17 -26.5t-46 -12.5q-18 0 -33.5 5.5t-27 19t-18.5 36t-7 55.5v422z" />
    <glyph glyph-name="OE" unicode="&#x152;" horiz-adv-x="982" 
d="M651 0q-74 0 -110 36q-35 -25 -75.5 -36.5t-86.5 -11.5q-64 0 -122 23t-102.5 68t-70.5 113t-26 158q0 88 26 155.5t69.5 113.5t100.5 69.5t118 23.5q79 0 128 -36v24h397q20 0 20 -26q0 -12 -1.5 -26t-4.5 -26h-320v-236h250q22 0 22 -28v-50h-272v-126
q0 -60 16.5 -82.5t54.5 -22.5h241q22 0 22 -28v-49h-274zM509 96q-9 33 -9 78v427q-25 15 -55 23.5t-66 8.5q-44 0 -85 -16.5t-72.5 -50t-51 -85.5t-19.5 -123t19 -125.5t52 -91.5t77 -56t94 -19q32 0 61.5 7t54.5 23z" />
    <glyph glyph-name="oe" unicode="&#x153;" horiz-adv-x="1009" 
d="M897 93q5 -6 9 -17t4 -21t-11.5 -22t-32 -22t-50 -16.5t-65.5 -6.5q-72 0 -130.5 33.5t-89.5 96.5q-32 -66 -90.5 -98t-126.5 -32q-53 0 -100.5 18.5t-83 54t-56.5 87.5t-21 119q0 66 21 118t56.5 88t83 54.5t100.5 18.5q67 0 126 -33.5t91 -96.5q31 63 90 96.5t127 33.5
q47 0 86 -15t67 -41t43.5 -62t15.5 -78q0 -57 -19.5 -88t-64.5 -31h-301q4 -41 20.5 -72.5t42 -53t58 -32.5t69.5 -11q73 0 132 31zM743 471q-33 0 -62 -11.5t-51 -33.5t-36 -52.5t-18 -69.5h290q9 19 9 42q0 57 -35 91t-97 34zM319 63q33 0 63 12t53.5 36t37 61.5
t13.5 88.5q0 52 -14.5 91t-39.5 65.5t-57 40t-66 13.5q-33 0 -63 -12t-53.5 -36t-37 -61.5t-13.5 -88.5q0 -52 14.5 -91t39.5 -65.5t56.5 -40t66.5 -13.5z" />
    <glyph glyph-name="Scaron" unicode="&#x160;" horiz-adv-x="594" 
d="M291 712q80 0 140 -32.5t90 -86.5q3 -5 5 -10.5t2 -13.5q0 -12 -19 -23q-14 -8 -30 -12t-31 -5q-20 50 -60 77t-97 27q-60 0 -97.5 -30t-37.5 -81q0 -23 9 -42.5t29 -36t52.5 -31.5t79.5 -30q111 -36 160 -85t49 -121q0 -42 -17 -76.5t-48 -59.5t-76 -38.5t-100 -13.5
q-44 0 -81 7.5t-64 19t-42.5 25t-15.5 25.5q0 11 3.5 22t8.5 19q38 -19 85 -29.5t95 -10.5q81 0 120.5 30t39.5 76q0 48 -36 78.5t-117 52.5q-109 29 -168 81t-59 136q0 42 17 77.5t47 61t72 39.5t92 14zM138 879q14 22 25.5 31.5t20.5 9.5q6 0 11.5 -2.5t13.5 -10.5l83 -83
l100 100l36 -33q7 -6 7 -13q0 -8 -9 -17l-109 -105q-7 -1 -13.5 -1h-14.5q-12 0 -19 2.5t-15 9.5z" />
    <glyph glyph-name="scaron" unicode="&#x161;" horiz-adv-x="499" 
d="M366 393q-14 38 -45 58t-72 20q-45 0 -72 -22t-27 -56q0 -38 30.5 -59.5t98.5 -38.5q88 -22 127 -59.5t39 -97.5q0 -69 -49.5 -109.5t-144.5 -40.5q-37 0 -68.5 7t-55 17.5t-36.5 22.5t-13 22q0 11 4 22t9 17q32 -16 70.5 -25t78.5 -9q118 0 118 72q0 31 -23.5 51.5
t-85.5 34.5q-99 23 -142.5 65t-43.5 108q0 34 13.5 62t38 48t59.5 31.5t77 11.5q63 0 111.5 -24t71.5 -66q2 -5 4 -9t2 -9q0 -13 -14 -24q-21 -16 -60 -21zM96 705q14 22 25.5 31.5t20.5 9.5q6 0 11.5 -2.5t13.5 -10.5l83 -83l100 100l36 -33q7 -6 7 -13q0 -8 -9 -17
l-109 -105q-7 -1 -13.5 -1h-14.5q-12 0 -19 2.5t-15 9.5z" />
    <glyph glyph-name="Ydieresis" unicode="&#x178;" horiz-adv-x="661" 
d="M282 235l-244 430q20 20 37.5 30t30.5 10q15 0 24 -16l200 -366q60 82 114 178.5t89 198.5h65q16 0 22.5 -8t1.5 -19q-43 -115 -107 -225.5t-142 -208.5v-239h-63q-16 0 -22 5t-6 17v213zM292 837q0 -23 -14 -37t-35 -14t-37 14.5t-16 40.5q0 23 14 37t36 14
q20 0 36 -14.5t16 -40.5zM470 837q0 -23 -14 -37t-35 -14t-37 14.5t-16 40.5q0 23 14 37t36 14q20 0 36 -14.5t16 -40.5z" />
    <glyph glyph-name="Zcaron" unicode="&#x17d;" horiz-adv-x="610" 
d="M499 700q13 0 20 -3.5t13 -12.5q5 -8 10 -20.5t7 -26.5l-376 -560h361q23 0 23 -28v-49h-449q-13 0 -20 3.5t-13 12.5q-5 8 -10 20.5t-7 26.5l376 559h-338q-21 0 -21 26q0 11 2 25.5t5 26.5h417zM156 879q14 22 25.5 31.5t20.5 9.5q6 0 11.5 -2.5t13.5 -10.5l83 -83
l100 100l36 -33q7 -6 7 -13q0 -8 -9 -17l-109 -105q-7 -1 -13.5 -1h-14.5q-12 0 -19 2.5t-15 9.5z" />
    <glyph glyph-name="zcaron" unicode="&#x17e;" horiz-adv-x="505" 
d="M164 73h276q22 0 22 -28v-45h-361q-12 0 -19 3t-12 11q-6 9 -10.5 21.5t-6.5 25.5l289 399h-260q-21 0 -21 26q0 25 6 48h339q12 0 19 -3t12 -11q6 -9 10.5 -21.5t6.5 -25.5zM105 705q14 22 25.5 31.5t20.5 9.5q6 0 11.5 -2.5t13.5 -10.5l83 -83l100 100l36 -33
q7 -6 7 -13q0 -8 -9 -17l-109 -105q-7 -1 -13.5 -1h-14.5q-12 0 -19 2.5t-15 9.5z" />
    <glyph glyph-name="florin" unicode="&#x192;" horiz-adv-x="428" 
d="M-59 -197q0 11 3.5 22t8.5 18q17 -7 40 -11t49 -4q50 0 73 22.5t23 76.5v533h-86q-21 0 -21 26q0 25 6 48h101v30q0 88 44 133t118 45q25 0 47 -5t39 -12.5t27 -16.5t10 -16q0 -11 -4 -22t-9 -18q-17 7 -40.5 11t-49.5 4q-50 0 -72.5 -22.5t-22.5 -76.5v-34h159
q23 0 23 -29v-45h-182v-529q0 -88 -45 -133t-118 -45q-24 0 -46 5t-38.5 12.5t-26.5 16t-10 16.5z" />
    <glyph glyph-name="uni0237" unicode="&#x237;" horiz-adv-x="263" 
d="M123 -146q-25 -31 -48.5 -44.5t-36.5 -13.5q-11 0 -20.5 12t-13.5 23q40 39 63 85.5t23 98.5v516q30 9 60 9q27 0 27 -21v-510q0 -46 -15 -86t-39 -69z" />
    <glyph glyph-name="circumflex" unicode="&#x2c6;" horiz-adv-x="417" 
d="M362 601l-28 -30q-10 -10 -19 -10q-11 0 -25 14l-82 82l-96 -96q-48 18 -48 42q0 7 6 13l114 110h27q13 0 19.5 -2.5t15.5 -11.5z" />
    <glyph glyph-name="ring" unicode="&#x2da;" horiz-adv-x="417" 
d="M208 734q41 0 67 -25.5t26 -63.5t-26 -63.5t-67 -25.5q-40 0 -66.5 25.5t-26.5 63.5t26.5 63.5t66.5 25.5zM211 601q17 0 28.5 11.5t11.5 30.5q0 21 -12.5 33.5t-32.5 12.5q-17 0 -29 -11.5t-12 -30.5q0 -21 13 -33.5t33 -12.5z" />
    <glyph glyph-name="tilde" unicode="&#x2dc;" horiz-adv-x="417" 
d="M64 617q0 14 5 27q20 59 77 59q20 0 35 -6t33 -21q16 -13 25 -17.5t17 -4.5q13 0 20.5 10t12.5 41l45 -12q22 -6 17 -29q-8 -35 -28.5 -56t-54.5 -21q-19 0 -34 6t-33 21q-17 14 -25.5 18t-16.5 4q-13 0 -20.5 -9.5t-12.5 -38.5q-28 0 -46 8q-16 7 -16 21z" />
    <glyph glyph-name="endash" unicode="&#x2013;" horiz-adv-x="500" 
d="M478 371q22 0 22 -28v-50h-479q-21 0 -21 27q0 11 2 25t5 26h471z" />
    <glyph glyph-name="emdash" unicode="&#x2014;" horiz-adv-x="1000" 
d="M978 371q22 0 22 -28v-50h-979q-21 0 -21 27q0 11 2 25t5 26h971z" />
    <glyph glyph-name="quoteleft" unicode="&#x2018;" horiz-adv-x="329" 
d="M166 499q-23 0 -40.5 16.5t-17.5 48.5q0 39 13.5 72t37.5 62q18 23 35.5 32.5t22.5 7.5q5 -3 10 -9.5t7 -14.5q-22 -21 -37 -47t-19 -53q18 -5 30.5 -20.5t12.5 -38.5q0 -26 -15.5 -41t-39.5 -15z" />
    <glyph glyph-name="quoteright" unicode="&#x2019;" horiz-adv-x="329" 
d="M163 742q23 0 40.5 -16.5t17.5 -48.5q0 -39 -13.5 -72t-37.5 -62q-18 -23 -35.5 -32.5t-22.5 -7.5q-5 3 -10 9.5t-7 14.5q22 21 37 47t19 53q-18 5 -30.5 20.5t-12.5 38.5q0 26 15.5 41t39.5 15z" />
    <glyph glyph-name="quotesinglbase" unicode="&#x201a;" horiz-adv-x="329" 
d="M163 105q23 0 40.5 -16.5t17.5 -48.5q0 -39 -13.5 -72t-37.5 -62q-18 -23 -35.5 -32.5t-22.5 -7.5q-5 3 -10 9.5t-7 14.5q22 21 37 47t19 53q-18 5 -30.5 20.5t-12.5 38.5q0 26 15.5 41t39.5 15z" />
    <glyph glyph-name="quotedblleft" unicode="&#x201c;" horiz-adv-x="491" 
d="M328 499q-23 0 -40.5 16.5t-17.5 48.5q0 39 13.5 72t37.5 62q18 23 35.5 32.5t22.5 7.5q5 -3 10 -9.5t7 -14.5q-22 -21 -37 -47t-19 -53q18 -5 30.5 -20.5t12.5 -38.5q0 -26 -15.5 -41t-39.5 -15zM166 499q-23 0 -40.5 16.5t-17.5 48.5q0 39 13.5 72t37.5 62
q18 23 35.5 32.5t22.5 7.5q5 -3 10 -9.5t7 -14.5q-22 -21 -37 -47t-19 -53q18 -5 30.5 -20.5t12.5 -38.5q0 -26 -15.5 -41t-39.5 -15z" />
    <glyph glyph-name="quotedblright" unicode="&#x201d;" horiz-adv-x="491" 
d="M163 742q23 0 40.5 -16.5t17.5 -48.5q0 -39 -13.5 -72t-37.5 -62q-18 -23 -35.5 -32.5t-22.5 -7.5q-5 3 -10 9.5t-7 14.5q22 21 37 47t19 53q-18 5 -30.5 20.5t-12.5 38.5q0 26 15.5 41t39.5 15zM325 742q23 0 40.5 -16.5t17.5 -48.5q0 -39 -13.5 -72t-37.5 -62
q-18 -23 -35.5 -32.5t-22.5 -7.5q-5 3 -10 9.5t-7 14.5q22 21 37 47t19 53q-18 5 -30.5 20.5t-12.5 38.5q0 26 15.5 41t39.5 15z" />
    <glyph glyph-name="quotedblbase" unicode="&#x201e;" horiz-adv-x="491" 
d="M163 105q23 0 40.5 -16.5t17.5 -48.5q0 -39 -13.5 -72t-37.5 -62q-18 -23 -35.5 -32.5t-22.5 -7.5q-5 3 -10 9.5t-7 14.5q22 21 37 47t19 53q-18 5 -30.5 20.5t-12.5 38.5q0 26 15.5 41t39.5 15zM325 105q23 0 40.5 -16.5t17.5 -48.5q0 -39 -13.5 -72t-37.5 -62
q-18 -23 -35.5 -32.5t-22.5 -7.5q-5 3 -10 9.5t-7 14.5q22 21 37 47t19 53q-18 5 -30.5 20.5t-12.5 38.5q0 26 15.5 41t39.5 15z" />
    <glyph glyph-name="dagger" unicode="&#x2020;" horiz-adv-x="521" 
d="M225 567l-8 173q29 8 59 8q29 0 28 -21l-8 -160l149 9q22 0 22 -29v-45l-169 9v-642h-47q-28 0 -28 23v619l-149 -8q-21 0 -21 26q0 10 1.5 23t3.5 24z" />
    <glyph glyph-name="daggerdbl" unicode="&#x2021;" horiz-adv-x="532" 
d="M230 567l-7 173q27 8 58 8q29 0 28 -19l-8 -162l149 9q23 0 23 -29v-45l-170 9v-406l147 9q23 0 23 -28v-46l-172 9l8 -159q1 -21 -28 -21q-31 0 -58 8l7 172l-151 -8q-21 0 -21 26q0 10 1.5 23t3.5 24l165 -9v406l-149 -8q-21 0 -21 26q0 10 1.5 23t3.5 24z" />
    <glyph glyph-name="bullet" unicode="&#x2022;" horiz-adv-x="432" 
d="M219 219q-22 0 -42 8t-35.5 23.5t-25 37.5t-9.5 49q0 50 29.5 79t76.5 29q22 0 42.5 -8t36 -23.5t25 -37.5t9.5 -49q0 -50 -29.5 -79t-77.5 -29z" />
    <glyph glyph-name="ellipsis" unicode="&#x2026;" horiz-adv-x="987" 
d="M221 44q0 -26 -15.5 -41t-39.5 -15q-23 0 -40.5 16t-17.5 45q0 26 15.5 41t39.5 15q23 0 40.5 -16t17.5 -45zM879 44q0 -26 -15.5 -41t-39.5 -15q-23 0 -40.5 16t-17.5 45q0 26 15.5 41t39.5 15q23 0 40.5 -16t17.5 -45zM550 44q0 -26 -15.5 -41t-39.5 -15
q-23 0 -40.5 16t-17.5 45q0 26 15.5 41t39.5 15q23 0 40.5 -16t17.5 -45z" />
    <glyph glyph-name="perthousand" unicode="&#x2030;" horiz-adv-x="1258" 
d="M384 532q0 -41 -13 -73.5t-35.5 -55.5t-53 -35t-64.5 -12q-35 0 -65 12t-52 35t-35 55.5t-13 73.5q0 40 13 73t35 55.5t52 35t65 12.5q34 0 64.5 -12.5t53 -35t35.5 -55.5t13 -73zM131 536q0 -54 25 -83.5t67 -29.5q37 0 59.5 28.5t22.5 77.5q0 53 -24.5 82.5t-66.5 29.5
q-38 0 -60.5 -28t-22.5 -77zM586 700q26 0 26 -15q0 -5 -3 -11l-282 -674h-38q-26 0 -26 15q0 5 3 11l282 674h38zM822 168q0 -41 -13 -73.5t-35.5 -55.5t-53 -35t-64.5 -12q-35 0 -65 12t-52 35t-35 55.5t-13 73.5q0 40 13 73t35 55.5t52 35t65 12.5q34 0 64.5 -12.5
t53 -35t35.5 -55.5t13 -73zM569 172q0 -54 25 -83.5t67 -29.5q37 0 59.5 28.5t22.5 77.5q0 53 -24.5 82.5t-66.5 29.5q-38 0 -60.5 -28t-22.5 -77zM1205 168q0 -41 -13 -73.5t-35.5 -55.5t-53 -35t-64.5 -12q-35 0 -65 12t-52 35t-35 55.5t-13 73.5q0 40 13 73t35 55.5
t52 35t65 12.5q34 0 64.5 -12.5t53 -35t35.5 -55.5t13 -73zM952 172q0 -54 25 -83.5t67 -29.5q37 0 59.5 28.5t22.5 77.5q0 53 -24.5 82.5t-66.5 29.5q-38 0 -60.5 -28t-22.5 -77z" />
    <glyph glyph-name="guilsinglleft" unicode="&#x2039;" horiz-adv-x="369" 
d="M78 271q-6 5 -10.5 12t-4.5 18v40l208 147q11 8 18 8q15 0 15 -24q0 -25 -6 -49l-163 -111l154 -106q8 -6 11 -12t3 -17v-64z" />
    <glyph glyph-name="guilsinglright" unicode="&#x203a;" horiz-adv-x="369" 
d="M64 113v64q0 11 3 17t11 12l154 106l-163 111q-6 24 -6 49q0 24 15 24q7 0 18 -8l208 -147v-40q0 -11 -4.5 -18t-10.5 -12z" />
    <glyph glyph-name="Euro" unicode="&#x20ac;" horiz-adv-x="687" 
d="M58 381h-38q-14 0 -14 17q0 16 5 33h51q9 67 37.5 119.5t70.5 88.5t95 54.5t110 18.5q95 0 163 -41t100 -106q5 -10 5 -17q0 -23 -27 -34q-21 -10 -51 -13q-25 63 -75 97.5t-120 34.5q-38 0 -73 -13t-64 -38.5t-50 -63.5t-29 -87h246q10 0 14 -5t4 -19v-26h-268v-7
q0 -18 1.5 -34.5t3.5 -32.5h245q10 0 14 -5t4 -19v-25h-251q31 -93 105.5 -142.5t173.5 -49.5q42 0 84.5 9t77.5 29q5 -8 8.5 -19.5t3.5 -22.5t-14.5 -24t-40 -24t-60 -18.5t-73.5 -7.5q-66 0 -124.5 18.5t-105.5 53t-80.5 85t-49.5 113.5h-52q-14 0 -14 17q0 15 5 32h51
q-2 15 -3 31t-1 33v10z" />
    <glyph glyph-name="trademark" unicode="&#x2122;" horiz-adv-x="737" 
d="M156 357q-14 0 -19 4.5t-5 13.5v272h-81q-20 0 -20 19q0 16 5 34h240q22 0 22 -23v-30h-102v-290h-40zM603 604l-64 -131q-4 -7 -9 -9.5t-16 -2.5h-35l-71 143l-26 -247h-38q-14 0 -19 4t-5 15l34 312q11 8 23.5 12.5t21.5 4.5t13.5 -3t9.5 -11l84 -163l88 172h40
q23 0 25 -19l35 -324h-42q-13 0 -18 3.5t-6 14.5z" />
    </font>
</defs>
</svg>
