<?xml version="1.0" encoding="UTF-8" standalone="no"?>
<!DOCTYPE svg PUBLIC "-//W3C//DTD SVG 1.1//EN"
 "http://www.w3.org/Graphics/SVG/1.1/DTD/svg11.dtd">
<!-- Generated by graphviz version 2.40.1 (20161225.0304)
 -->
<!-- Title: dependencies Pages: 1 -->
<svg width="709pt" height="284pt"
 viewBox="0.00 0.00 709.00 284.00" xmlns="http://www.w3.org/2000/svg" xmlns:xlink="http://www.w3.org/1999/xlink">
<g id="graph0" class="graph" transform="scale(1 1) rotate(0) translate(4 280)">
<title>dependencies</title>
<polygon fill="#ffffff" stroke="transparent" points="-4,4 -4,-280 705,-280 705,4 -4,4"/>
<text text-anchor="start" x="329.5091" y="-42.4" font-family="sans-serif" font-weight="bold" font-size="14.00" fill="#000000">Legend</text>
<polygon fill="#ffffb3" stroke="transparent" points="116.5,-10 116.5,-30 136.5,-30 136.5,-10 116.5,-10"/>
<text text-anchor="start" x="140.129" y="-15.4" font-family="sans-serif" font-size="14.00" fill="#000000"> &#160;Declarations</text>
<polygon fill="#8dd3c7" stroke="transparent" points="229.5,-10 229.5,-30 249.5,-30 249.5,-10 229.5,-10"/>
<text text-anchor="start" x="253.2251" y="-15.4" font-family="sans-serif" font-size="14.00" fill="#000000"> &#160;Module</text>
<polygon fill="#80b1d3" stroke="transparent" points="315.5,-10 315.5,-30 335.5,-30 335.5,-10 315.5,-10"/>
<text text-anchor="start" x="339.2812" y="-15.4" font-family="sans-serif" font-size="14.00" fill="#000000"> &#160;Bootstrap</text>
<polygon fill="#fdb462" stroke="transparent" points="412.5,-10 412.5,-30 432.5,-30 432.5,-10 412.5,-10"/>
<text text-anchor="start" x="436.1732" y="-15.4" font-family="sans-serif" font-size="14.00" fill="#000000"> &#160;Providers</text>
<polygon fill="#fb8072" stroke="transparent" points="508.5,-10 508.5,-30 528.5,-30 528.5,-10 508.5,-10"/>
<text text-anchor="start" x="532.2258" y="-15.4" font-family="sans-serif" font-size="14.00" fill="#000000"> &#160;Exports</text>
<g id="clust1" class="cluster">
<title>cluster_AppModule</title>
<polygon fill="none" stroke="#000000" stroke-dasharray="1,5" points="8,-70 8,-268 693,-268 693,-70 8,-70"/>
</g>
<g id="clust2" class="cluster">
<title>cluster_AppModule_declarations</title>
<polygon fill="none" stroke="#000000" points="563,-78 563,-130 685,-130 685,-78 563,-78"/>
</g>
<g id="clust4" class="cluster">
<title>cluster_AppModule_imports</title>
<polygon fill="none" stroke="#000000" points="16,-78 16,-130 555,-130 555,-78 16,-78"/>
</g>
<g id="clust6" class="cluster">
<title>cluster_AppModule_bootstrap</title>
<polygon fill="none" stroke="#000000" points="286,-208 286,-260 410,-260 410,-208 286,-208"/>
</g>
<!-- AppComponent -->
<g id="node1" class="node">
<title>AppComponent</title>
<polygon fill="#ffffb3" stroke="#000000" points="676.9399,-122 571.0601,-122 571.0601,-86 676.9399,-86 676.9399,-122"/>
<text text-anchor="middle" x="624" y="-99.8" font-family="Times,serif" font-size="14.00" fill="#000000">AppComponent</text>
</g>
<!-- AppModule -->
<g id="node2" class="node">
<title>AppModule</title>
<polygon fill="#8dd3c7" stroke="#000000" points="389.6571,-187 386.6571,-191 365.6571,-191 362.6571,-187 306.3429,-187 306.3429,-151 389.6571,-151 389.6571,-187"/>
<text text-anchor="middle" x="348" y="-164.8" font-family="Times,serif" font-size="14.00" fill="#000000">AppModule</text>
</g>
<!-- AppComponent&#45;&gt;AppModule -->
<g id="edge1" class="edge">
<title>AppComponent&#45;&gt;AppModule</title>
<path fill="none" stroke="#000000" d="M624,-122.2843C624,-143.3211 624,-175 624,-175 624,-175 399.9185,-175 399.9185,-175"/>
<polygon fill="#000000" stroke="#000000" points="399.9185,-171.5001 389.9185,-175 399.9184,-178.5001 399.9185,-171.5001"/>
</g>
<!-- AppComponent  -->
<g id="node7" class="node">
<title>AppComponent </title>
<polygon fill="#80b1d3" stroke="#000000" points="402.439,-252 293.561,-252 293.561,-216 402.439,-216 402.439,-252"/>
<text text-anchor="middle" x="348" y="-229.8" font-family="Times,serif" font-size="14.00" fill="#000000">AppComponent </text>
</g>
<!-- AppModule&#45;&gt;AppComponent  -->
<g id="edge6" class="edge">
<title>AppModule&#45;&gt;AppComponent </title>
<path fill="none" stroke="#000000" stroke-dasharray="1,5" d="M348,-187.1061C348,-187.1061 348,-205.991 348,-205.991"/>
<polygon fill="#000000" stroke="#000000" points="344.5001,-205.9909 348,-215.991 351.5001,-205.991 344.5001,-205.9909"/>
</g>
<!-- AppRoutingModule -->
<g id="node3" class="node">
<title>AppRoutingModule</title>
<polygon fill="#8dd3c7" stroke="#000000" points="547.2744,-122 544.2744,-126 523.2744,-126 520.2744,-122 418.7256,-122 418.7256,-86 547.2744,-86 547.2744,-122"/>
<text text-anchor="middle" x="483" y="-99.8" font-family="Times,serif" font-size="14.00" fill="#000000">AppRoutingModule</text>
</g>
<!-- AppRoutingModule&#45;&gt;AppModule -->
<g id="edge2" class="edge">
<title>AppRoutingModule&#45;&gt;AppModule</title>
<path fill="none" stroke="#000000" d="M483,-122.0225C483,-139.3734 483,-163 483,-163 483,-163 399.9748,-163 399.9748,-163"/>
<polygon fill="#000000" stroke="#000000" points="399.9749,-159.5001 389.9748,-163 399.9748,-166.5001 399.9749,-159.5001"/>
</g>
<!-- LayoutsModule -->
<g id="node4" class="node">
<title>LayoutsModule</title>
<polygon fill="#8dd3c7" stroke="#000000" points="400.1528,-122 397.1528,-126 376.1528,-126 373.1528,-122 295.8472,-122 295.8472,-86 400.1528,-86 400.1528,-122"/>
<text text-anchor="middle" x="348" y="-99.8" font-family="Times,serif" font-size="14.00" fill="#000000">LayoutsModule</text>
</g>
<!-- LayoutsModule&#45;&gt;AppModule -->
<g id="edge3" class="edge">
<title>LayoutsModule&#45;&gt;AppModule</title>
<path fill="none" stroke="#000000" d="M348,-122.1061C348,-122.1061 348,-140.991 348,-140.991"/>
<polygon fill="#000000" stroke="#000000" points="344.5001,-140.9909 348,-150.991 351.5001,-140.991 344.5001,-140.9909"/>
</g>
<!-- LoginModule -->
<g id="node5" class="node">
<title>LoginModule</title>
<polygon fill="#8dd3c7" stroke="#000000" points="277.493,-122 274.493,-126 253.493,-126 250.493,-122 184.507,-122 184.507,-86 277.493,-86 277.493,-122"/>
<text text-anchor="middle" x="231" y="-99.8" font-family="Times,serif" font-size="14.00" fill="#000000">LoginModule</text>
</g>
<!-- LoginModule&#45;&gt;AppModule -->
<g id="edge4" class="edge">
<title>LoginModule&#45;&gt;AppModule</title>
<path fill="none" stroke="#000000" d="M231,-122.0225C231,-139.3734 231,-163 231,-163 231,-163 296.0908,-163 296.0908,-163"/>
<polygon fill="#000000" stroke="#000000" points="296.0908,-166.5001 306.0908,-163 296.0907,-159.5001 296.0908,-166.5001"/>
</g>
<!-- RepresentativeModule -->
<g id="node6" class="node">
<title>RepresentativeModule</title>
<polygon fill="#8dd3c7" stroke="#000000" points="166.2366,-122 163.2366,-126 142.2366,-126 139.2366,-122 23.7634,-122 23.7634,-86 166.2366,-86 166.2366,-122"/>
<text text-anchor="middle" x="95" y="-99.8" font-family="Times,serif" font-size="14.00" fill="#000000">RepresentativeModule</text>
</g>
<!-- RepresentativeModule&#45;&gt;AppModule -->
<g id="edge5" class="edge">
<title>RepresentativeModule&#45;&gt;AppModule</title>
<path fill="none" stroke="#000000" d="M95,-122.2843C95,-143.3211 95,-175 95,-175 95,-175 296.2222,-175 296.2222,-175"/>
<polygon fill="#000000" stroke="#000000" points="296.2222,-178.5001 306.2222,-175 296.2222,-171.5001 296.2222,-178.5001"/>
</g>
</g>
</svg>
