<?xml version="1.0"?>
<svg xmlns="http://www.w3.org/2000/svg" height="512px" viewBox="0 0 512 512" width="512px" class=""><g><path d="m494.933594 0h-34.132813c-9.425781 0-17.066406 7.640625-17.066406 17.066406v34.132813c.019531 1.476562.234375 2.941406.640625 4.359375l-66.476562 66.476562c-3.414063-1.671875-7.164063-2.550781-10.964844-2.570312h-221.867188c-3.800781.015625-7.550781.890625-10.964844 2.5625l-66.476562-66.476563c.40625-1.414062.621094-2.878906.640625-4.351562v-34.132813c0-9.425781-7.640625-17.066406-17.066406-17.066406h-34.132813c-9.425781 0-17.066406 7.640625-17.066406 17.066406v34.132813c0 9.425781 7.640625 17.066406 17.066406 17.066406h34.132813c1.476562-.019531 2.941406-.234375 4.359375-.640625l66.476562 66.476562c-1.671875 3.414063-2.550781 7.164063-2.570312 10.964844v221.867188c.015625 3.800781.890625 7.550781 2.5625 10.964844l-66.476563 66.476562c-1.414062-.40625-2.878906-.621094-4.351562-.640625h-34.132813c-9.425781 0-17.066406 7.640625-17.066406 17.066406v34.132813c0 9.425781 7.640625 17.066406 17.066406 17.066406h34.132813c9.425781 0 17.066406-7.640625 17.066406-17.066406v-34.132813c-.019531-1.476562-.234375-2.941406-.640625-4.359375l66.476562-66.476562c3.414063 1.671875 7.164063 2.550781 10.964844 2.570312h221.867188c3.800781-.015625 7.550781-.890625 10.964844-2.5625l66.476562 66.476563c-.40625 1.414062-.621094 2.878906-.640625 4.351562v34.132813c0 9.425781 7.640625 17.066406 17.066406 17.066406h34.132813c9.425781 0 17.066406-7.640625 17.066406-17.066406v-34.132813c0-9.425781-7.640625-17.066406-17.066406-17.066406h-34.132813c-1.476562.019531-2.941406.234375-4.359375.640625l-66.476562-66.476562c1.671875-3.414063 2.550781-7.164063 2.570312-10.964844v-221.867188c-.015625-3.800781-.890625-7.550781-2.5625-10.964844l66.476563-66.476562c1.414062.40625 2.878906.621094 4.351562.640625h34.132813c9.425781 0 17.066406-7.640625 17.066406-17.066406v-34.132813c0-9.425781-7.640625-17.066406-17.066406-17.066406zm-131.53125 136.535156-107.402344 107.398438-107.402344-107.398438zm-346.335938-119.46875h34.132813v34.132813h-34.132813zm119.46875 131.53125 107.398438 107.402344-107.398438 107.402344zm-119.46875 346.335938v-34.132813h34.132813v34.132813zm131.53125-119.46875 107.402344-107.398438 107.402344 107.398438zm346.335938 119.46875h-34.132813v-34.132813h34.132813zm-119.46875-131.53125-107.398438-107.402344 107.398438-107.402344zm85.335937-312.203125v-34.132813h34.132813v34.132813zm0 0" data-original="#000000" class="active-path" data-old_color="#000000" fill="#00000020"/><path d="m34.132812 119.464844c4.714844 0 8.535157-3.820313 8.535157-8.53125v-17.066406c0-4.714844-3.820313-8.535157-8.535157-8.535157-4.710937 0-8.53125 3.820313-8.53125 8.535157v17.066406c0 4.710937 3.820313 8.53125 8.53125 8.53125zm0 0" data-original="#000000" class="active-path" data-old_color="#000000" fill="#00000020"/><path d="m25.601562 162.132812c0 4.714844 3.820313 8.535157 8.53125 8.535157 4.714844 0 8.535157-3.820313 8.535157-8.535157v-17.066406c0-4.710937-3.820313-8.53125-8.535157-8.53125-4.710937 0-8.53125 3.820313-8.53125 8.53125zm0 0" data-original="#000000" class="active-path" data-old_color="#000000" fill="#00000020"/><path d="m25.601562 213.332031c0 4.714844 3.820313 8.535157 8.53125 8.535157 4.714844 0 8.535157-3.820313 8.535157-8.535157v-17.066406c0-4.710937-3.820313-8.53125-8.535157-8.53125-4.710937 0-8.53125 3.820313-8.53125 8.53125zm0 0" data-original="#000000" class="active-path" data-old_color="#000000" fill="#00000020"/><path d="m25.601562 264.535156c0 4.710938 3.820313 8.53125 8.53125 8.53125 4.714844 0 8.535157-3.820312 8.535157-8.53125v-17.070312c0-4.710938-3.820313-8.53125-8.535157-8.53125-4.710937 0-8.53125 3.820312-8.53125 8.53125zm0 0" data-original="#000000" class="active-path" data-old_color="#000000" fill="#00000020"/><path d="m25.601562 315.734375c0 4.710937 3.820313 8.53125 8.53125 8.53125 4.714844 0 8.535157-3.820313 8.535157-8.53125v-17.066406c0-4.714844-3.820313-8.535157-8.535157-8.535157-4.710937 0-8.53125 3.820313-8.53125 8.535157zm0 0" data-original="#000000" class="active-path" data-old_color="#000000" fill="#00000020"/><path d="m25.601562 366.933594c0 4.710937 3.820313 8.53125 8.53125 8.53125 4.714844 0 8.535157-3.820313 8.535157-8.53125v-17.066406c0-4.714844-3.820313-8.535157-8.535157-8.535157-4.710937 0-8.53125 3.820313-8.53125 8.535157zm0 0" data-original="#000000" class="active-path" data-old_color="#000000" fill="#00000020"/><path d="m25.601562 418.132812c0 4.714844 3.820313 8.535157 8.53125 8.535157 4.714844 0 8.535157-3.820313 8.535157-8.535157v-17.066406c0-4.710937-3.820313-8.53125-8.535157-8.53125-4.710937 0-8.53125 3.820313-8.53125 8.53125zm0 0" data-original="#000000" class="active-path" data-old_color="#000000" fill="#00000020"/><path d="m110.933594 42.667969c4.710937 0 8.53125-3.820313 8.53125-8.535157 0-4.710937-3.820313-8.53125-8.53125-8.53125h-17.066406c-4.714844 0-8.535157 3.820313-8.535157 8.53125 0 4.714844 3.820313 8.535157 8.535157 8.535157zm0 0" data-original="#000000" class="active-path" data-old_color="#000000" fill="#00000020"/><path d="m162.132812 42.667969c4.714844 0 8.535157-3.820313 8.535157-8.535157 0-4.710937-3.820313-8.53125-8.535157-8.53125h-17.066406c-4.710937 0-8.53125 3.820313-8.53125 8.53125 0 4.714844 3.820313 8.535157 8.53125 8.535157zm0 0" data-original="#000000" class="active-path" data-old_color="#000000" fill="#00000020"/><path d="m213.332031 42.667969c4.714844 0 8.535157-3.820313 8.535157-8.535157 0-4.710937-3.820313-8.53125-8.535157-8.53125h-17.066406c-4.710937 0-8.53125 3.820313-8.53125 8.53125 0 4.714844 3.820313 8.535157 8.53125 8.535157zm0 0" data-original="#000000" class="active-path" data-old_color="#000000" fill="#00000020"/><path d="m264.535156 42.667969c4.710938 0 8.53125-3.820313 8.53125-8.535157 0-4.710937-3.820312-8.53125-8.53125-8.53125h-17.070312c-4.710938 0-8.53125 3.820313-8.53125 8.53125 0 4.714844 3.820312 8.535157 8.53125 8.535157zm0 0" data-original="#000000" class="active-path" data-old_color="#000000" fill="#00000020"/><path d="m315.734375 42.667969c4.710937 0 8.53125-3.820313 8.53125-8.535157 0-4.710937-3.820313-8.53125-8.53125-8.53125h-17.066406c-4.714844 0-8.535157 3.820313-8.535157 8.53125 0 4.714844 3.820313 8.535157 8.535157 8.535157zm0 0" data-original="#000000" class="active-path" data-old_color="#000000" fill="#00000020"/><path d="m366.933594 42.667969c4.710937 0 8.53125-3.820313 8.53125-8.535157 0-4.710937-3.820313-8.53125-8.53125-8.53125h-17.066406c-4.714844 0-8.535157 3.820313-8.535157 8.53125 0 4.714844 3.820313 8.535157 8.535157 8.535157zm0 0" data-original="#000000" class="active-path" data-old_color="#000000" fill="#00000020"/><path d="m418.132812 42.667969c4.714844 0 8.535157-3.820313 8.535157-8.535157 0-4.710937-3.820313-8.53125-8.535157-8.53125h-17.066406c-4.710937 0-8.53125 3.820313-8.53125 8.53125 0 4.714844 3.820313 8.535157 8.53125 8.535157zm0 0" data-original="#000000" class="active-path" data-old_color="#000000" fill="#00000020"/><path d="m110.933594 486.398438c4.710937 0 8.53125-3.820313 8.53125-8.53125 0-4.714844-3.820313-8.535157-8.53125-8.535157h-17.066406c-4.714844 0-8.535157 3.820313-8.535157 8.535157 0 4.710937 3.820313 8.53125 8.535157 8.53125zm0 0" data-original="#000000" class="active-path" data-old_color="#000000" fill="#00000020"/><path d="m162.132812 486.398438c4.714844 0 8.535157-3.820313 8.535157-8.53125 0-4.714844-3.820313-8.535157-8.535157-8.535157h-17.066406c-4.710937 0-8.53125 3.820313-8.53125 8.535157 0 4.710937 3.820313 8.53125 8.53125 8.53125zm0 0" data-original="#000000" class="active-path" data-old_color="#000000" fill="#00000020"/><path d="m213.332031 486.398438c4.714844 0 8.535157-3.820313 8.535157-8.53125 0-4.714844-3.820313-8.535157-8.535157-8.535157h-17.066406c-4.710937 0-8.53125 3.820313-8.53125 8.535157 0 4.710937 3.820313 8.53125 8.53125 8.53125zm0 0" data-original="#000000" class="active-path" data-old_color="#000000" fill="#00000020"/><path d="m247.464844 486.398438h17.070312c4.710938 0 8.53125-3.820313 8.53125-8.53125 0-4.714844-3.820312-8.535157-8.53125-8.535157h-17.070312c-4.710938 0-8.53125 3.820313-8.53125 8.535157 0 4.710937 3.820312 8.53125 8.53125 8.53125zm0 0" data-original="#000000" class="active-path" data-old_color="#000000" fill="#00000020"/><path d="m298.667969 486.398438h17.066406c4.710937 0 8.53125-3.820313 8.53125-8.53125 0-4.714844-3.820313-8.535157-8.53125-8.535157h-17.066406c-4.714844 0-8.535157 3.820313-8.535157 8.535157 0 4.710937 3.820313 8.53125 8.535157 8.53125zm0 0" data-original="#000000" class="active-path" data-old_color="#000000" fill="#00000020"/><path d="m366.933594 486.398438c4.710937 0 8.53125-3.820313 8.53125-8.53125 0-4.714844-3.820313-8.535157-8.53125-8.535157h-17.066406c-4.714844 0-8.535157 3.820313-8.535157 8.535157 0 4.710937 3.820313 8.53125 8.535157 8.53125zm0 0" data-original="#000000" class="active-path" data-old_color="#000000" fill="#00000020"/><path d="m418.132812 486.398438c4.714844 0 8.535157-3.820313 8.535157-8.53125 0-4.714844-3.820313-8.535157-8.535157-8.535157h-17.066406c-4.710937 0-8.53125 3.820313-8.53125 8.535157 0 4.710937 3.820313 8.53125 8.53125 8.53125zm0 0" data-original="#000000" class="active-path" data-old_color="#000000" fill="#00000020"/><path d="m486.398438 93.867188c0-4.714844-3.820313-8.535157-8.53125-8.535157-4.714844 0-8.535157 3.820313-8.535157 8.535157v17.066406c0 4.710937 3.820313 8.53125 8.535157 8.53125 4.710937 0 8.53125-3.820313 8.53125-8.53125zm0 0" data-original="#000000" class="active-path" data-old_color="#000000" fill="#00000020"/><path d="m486.398438 145.066406c0-4.710937-3.820313-8.53125-8.53125-8.53125-4.714844 0-8.535157 3.820313-8.535157 8.53125v17.066406c0 4.714844 3.820313 8.535157 8.535157 8.535157 4.710937 0 8.53125-3.820313 8.53125-8.535157zm0 0" data-original="#000000" class="active-path" data-old_color="#000000" fill="#00000020"/><path d="m486.398438 196.265625c0-4.710937-3.820313-8.53125-8.53125-8.53125-4.714844 0-8.535157 3.820313-8.535157 8.53125v17.066406c0 4.714844 3.820313 8.535157 8.535157 8.535157 4.710937 0 8.53125-3.820313 8.53125-8.535157zm0 0" data-original="#000000" class="active-path" data-old_color="#000000" fill="#00000020"/><path d="m486.398438 247.464844c0-4.710938-3.820313-8.53125-8.53125-8.53125-4.714844 0-8.535157 3.820312-8.535157 8.53125v17.070312c0 4.710938 3.820313 8.53125 8.535157 8.53125 4.710937 0 8.53125-3.820312 8.53125-8.53125zm0 0" data-original="#000000" class="active-path" data-old_color="#000000" fill="#00000020"/><path d="m486.398438 298.667969c0-4.714844-3.820313-8.535157-8.53125-8.535157-4.714844 0-8.535157 3.820313-8.535157 8.535157v17.066406c0 4.710937 3.820313 8.53125 8.535157 8.53125 4.710937 0 8.53125-3.820313 8.53125-8.53125zm0 0" data-original="#000000" class="active-path" data-old_color="#000000" fill="#00000020"/><path d="m486.398438 349.867188c0-4.714844-3.820313-8.535157-8.53125-8.535157-4.714844 0-8.535157 3.820313-8.535157 8.535157v17.066406c0 4.710937 3.820313 8.53125 8.535157 8.53125 4.710937 0 8.53125-3.820313 8.53125-8.53125zm0 0" data-original="#000000" class="active-path" data-old_color="#000000" fill="#00000020"/><path d="m477.867188 392.535156c-4.714844 0-8.535157 3.820313-8.535157 8.53125v17.066406c0 4.714844 3.820313 8.535157 8.535157 8.535157 4.710937 0 8.53125-3.820313 8.53125-8.535157v-17.066406c0-4.710937-3.820313-8.53125-8.53125-8.53125zm0 0" data-original="#000000" class="active-path" data-old_color="#000000" fill="#00000020"/></g> </svg>
